<svg width="969" height="698" viewBox="0 0 969 698" fill="none" xmlns="http://www.w3.org/2000/svg">
<g clip-path="url(#clip0_91_658)">
<path d="M338.032 253.523L637.988 553.706" stroke="white" stroke-width="1.02"/>
<path d="M639.009 252.529L337.025 554.713" stroke="white" stroke-width="1.02"/>
<mask id="mask0_91_658" style="mask-type:luminance" maskUnits="userSpaceOnUse" x="0" y="0" width="969" height="698">
<path d="M969 0H0V698H969V0Z" fill="white"/>
</mask>
<g mask="url(#mask0_91_658)">
<path d="M378.178 391.133C378.178 390.892 378.164 390.651 378.178 390.395C378.32 386.024 378.178 381.582 378.065 377.297C377.951 373.607 377.838 369.79 377.909 366.043C378.05 357.344 378.235 350.305 378.476 343.891C378.731 336.753 379.128 329.799 379.483 323.953C379.71 320.235 379.979 316.531 380.263 312.827C380.419 310.712 380.575 308.612 380.716 306.498C380.759 305.916 380.773 305.334 380.773 304.752C380.773 304.227 380.787 303.716 380.83 303.205C381.071 299.402 381.312 295.599 381.553 291.796C381.78 288.22 382.007 284.643 382.234 281.067C382.617 274.88 383 268.693 383.368 262.505C383.68 257.226 383.978 251.933 384.248 246.654C384.361 244.227 384.46 241.787 384.559 239.36C384.744 234.947 384.928 230.377 385.24 225.907C385.524 221.877 386.02 217.79 386.488 213.83C386.658 212.425 386.828 211.006 386.984 209.601C387.339 206.55 387.708 203.513 388.091 200.477L388.417 197.922C388.445 197.638 388.502 197.369 388.559 197.085C389.112 197.227 389.608 197.511 390.133 197.809L390.317 197.922C392.643 199.242 395.28 200.746 397.237 202.861C397.549 203.187 397.847 203.528 398.159 203.854C399.62 205.401 400.995 206.862 401.988 208.679C402.796 210.183 403.505 211.758 404.186 213.277C404.569 214.142 404.952 215.008 405.349 215.86C405.718 216.626 406.044 217.406 406.37 218.201C407.207 220.202 408.072 222.288 409.546 224.119C409.83 224.488 409.986 225.07 410.085 225.552C410.426 227.212 411.447 228.362 413.12 228.944L413.489 229.071L413.843 228.915C414.921 228.433 415.318 227.482 414.907 226.446C414.368 225.084 413.786 223.707 413.163 222.331C412.482 220.841 411.787 219.351 411.092 217.861C409.943 215.377 408.752 212.809 407.632 210.268C405.576 205.585 402.3 201.697 399.691 198.845C399.208 198.319 398.599 197.965 398.003 197.624C397.634 197.411 397.28 197.213 396.996 196.986C395.465 195.751 393.692 194.672 391.451 193.565C390.799 193.239 390.133 192.941 389.409 192.629C395.465 189.819 401.775 189.28 408.185 191.068C410.213 191.635 412.34 192.331 414.496 193.154C419.743 195.141 424.451 198.021 428.889 201.938C433.37 205.897 437.213 210.779 440.291 216.413C443.084 221.536 444.928 227.255 445.935 233.896C446.459 237.387 446.672 240.836 446.545 244.114C446.474 246.086 446.218 248.116 445.977 250.06L445.906 250.585C444.97 258.12 443.07 265.429 440.121 272.893C437.696 279.024 434.803 285.098 432.009 290.959C430.931 293.229 429.854 295.485 428.79 297.77C426.152 303.447 423.132 309.052 420.225 314.459C419.87 315.112 419.586 315.793 419.303 316.446C419.076 316.971 418.849 317.496 418.594 317.992L418.381 318.404C417.601 319.951 416.793 321.554 415.899 323.073C414.169 325.968 412.666 329.005 411.191 331.942C410.199 333.943 409.149 335.93 408.114 337.917C407.448 339.194 406.781 340.471 406.115 341.748C405.93 342.117 405.774 342.515 405.618 342.898C405.476 343.267 405.335 343.636 405.136 343.99C404.271 345.594 403.392 347.183 402.513 348.773C400.697 352.051 398.826 355.443 397.138 358.848C396.259 360.622 395.238 362.354 394.231 364.028C393.692 364.936 393.153 365.83 392.643 366.739C391.834 368.172 391.069 369.648 390.345 371.067C389.594 372.543 388.8 374.075 387.963 375.537C387.325 376.672 386.63 377.779 385.935 378.886C385.113 380.192 384.276 381.54 383.524 382.916C383.028 383.825 382.432 384.676 381.823 385.57C381.014 386.748 380.163 387.968 379.539 389.331C379.256 389.927 378.76 390.509 378.206 391.105M369.811 327.827C369.811 327.955 369.811 328.096 369.811 328.224C369.811 329.26 369.811 330.296 369.811 331.318C369.825 333.603 369.854 335.958 369.627 338.229C369.471 339.918 369.499 341.606 369.542 343.224C369.584 345.239 369.627 347.141 369.329 349.057C369.244 349.61 369.329 350.149 369.386 350.632C369.428 350.887 369.457 351.128 369.471 351.37C369.471 351.583 369.499 351.795 369.514 352.008C369.556 352.576 369.599 353.129 369.471 353.569C369.428 353.711 369.4 353.853 369.357 353.995C368.336 347.723 367.301 341.45 366.28 335.178L365.047 327.756C364.111 322.122 363.175 316.488 362.295 310.854C362.111 309.705 362.026 308.513 361.941 307.349C361.87 306.37 361.799 305.362 361.671 304.355C361.558 303.475 361.374 302.595 361.203 301.744C361.005 300.807 360.821 299.927 360.721 299.019C360.48 296.919 360.282 294.818 360.083 292.718C359.913 290.944 359.757 289.156 359.558 287.382C358.864 281.011 358.934 274.483 359.005 268.168L359.034 265.883C359.076 261.938 359.218 257.283 360.041 252.657C360.154 252.033 360.197 251.408 360.239 250.812L360.296 250.145C360.594 246.697 361.26 243.22 361.856 240.24C362.707 235.982 363.94 230.405 365.826 224.956C366.096 224.176 366.351 223.395 366.621 222.615C367.571 219.748 368.563 216.768 370.038 214.057C371.598 211.177 372.903 208.792 374.363 206.352C375.838 203.897 377.866 201.711 379.823 199.696C379.837 200.604 379.738 201.427 379.625 202.293V202.406C379.242 205.316 378.859 208.225 378.462 211.12C377.994 214.625 377.526 218.13 377.086 221.65C376.831 223.75 376.689 225.878 376.547 227.95C376.491 228.773 376.434 229.596 376.377 230.405L376.335 230.902C376.093 234.109 375.852 237.302 375.64 240.509C375.583 241.304 375.569 242.099 375.54 242.893C375.526 243.646 375.498 244.398 375.455 245.164C374.902 253.892 374.349 262.619 373.768 271.347L373.583 274.071C373.229 279.421 372.874 284.956 372.25 290.377C372.038 292.222 371.995 294.095 371.953 295.911C371.938 296.72 371.924 297.529 371.882 298.338C371.882 298.494 371.882 298.636 371.882 298.792C371.882 298.976 371.882 299.161 371.868 299.345C371.598 301.332 371.541 303.333 371.47 305.263C371.414 306.895 371.371 308.584 371.187 310.216C370.946 312.373 370.861 314.572 370.776 316.701C370.648 319.993 370.506 323.413 369.811 326.692C369.726 327.089 369.74 327.472 369.755 327.813M453.72 238.069C453.678 237.245 453.607 236.451 453.323 235.67C452.883 234.478 452.671 233.244 452.444 231.924C452.274 230.916 452.089 229.88 451.806 228.859L451.423 227.482C450.402 223.807 449.338 220.003 446.771 216.725C446.729 216.668 446.686 216.47 446.658 216.285C446.303 214.682 445.453 213.334 444.63 212.042C444.403 211.673 444.162 211.318 443.949 210.949C443.255 209.786 442.503 208.693 441.907 207.87C441.255 206.962 440.56 206.082 439.837 205.202C439.681 205.003 439.497 204.833 439.312 204.663C439.156 204.521 439.014 204.379 438.929 204.266C437.766 202.534 436.249 201.129 434.774 199.767C433.909 198.958 433.002 198.121 432.208 197.255C431.966 196.986 431.669 196.801 431.428 196.659L431.314 196.588C430.492 196.091 429.683 195.581 428.861 195.056C426.946 193.849 424.947 192.6 422.905 191.479C420.466 190.145 417.601 188.641 414.623 187.591C409.759 185.888 405.108 184.866 400.371 184.455C391.735 183.703 383.723 185.945 376.59 191.11C372.477 194.091 369.074 197.667 366.493 201.754L366.138 202.307C364.224 205.33 362.239 208.452 360.991 211.914C360.466 213.39 359.941 214.824 359.317 216.2C357.984 219.166 356.807 222.302 355.829 225.538C355.389 226.985 355.049 228.475 354.723 229.923C354.567 230.604 354.411 231.285 354.241 231.966C354.127 232.406 354 232.846 353.872 233.3C353.588 234.28 353.305 235.287 353.191 236.337C352.95 238.693 352.454 241.077 351.986 243.376L351.957 243.504C350.639 249.875 350.327 256.403 350.015 262.718L349.972 263.47C349.83 266.408 349.873 269.388 349.915 272.255L349.944 274.44C350.029 281.876 350.199 289.795 351.248 297.728C351.319 298.267 351.404 298.792 351.489 299.331C351.589 299.97 351.688 300.594 351.759 301.233C352 303.248 352.241 305.263 352.482 307.278C352.752 309.506 353.021 311.734 353.29 313.976C353.347 314.402 353.475 314.828 353.702 315.282C354.184 316.275 354.269 317.368 354.368 318.517V318.73C354.482 319.837 354.666 320.93 354.865 322.051C355.021 322.888 355.177 323.711 355.347 324.549C355.645 326.01 355.942 327.529 356.141 329.005L356.268 329.941C356.538 332.07 356.822 334.27 357.587 336.412C357.942 337.42 358.14 338.513 358.325 339.591L358.41 340.031C358.509 340.542 358.552 341.067 358.608 341.578C358.708 342.515 358.807 343.494 359.119 344.445C359.7 346.204 360.097 348.063 360.338 350.135C360.594 352.363 361.005 354.605 361.402 356.777C361.572 357.713 361.742 358.65 361.898 359.586C361.898 359.643 361.898 359.714 361.913 359.785C361.927 360.012 361.955 360.338 362.125 360.651C362.778 361.829 363.047 363.134 363.331 364.496C363.472 365.178 363.614 365.859 363.827 366.611C364.224 368.03 364.635 369.506 365.571 370.513L365.628 371.407C365.685 372.202 365.727 372.869 365.784 373.536C365.855 374.246 365.954 374.941 366.082 375.75C366.181 376.417 366.28 377.098 366.379 377.765C366.621 379.411 366.876 381.128 367.23 382.803L367.471 383.952C367.925 386.18 368.379 388.493 369.584 390.636C369.868 391.133 369.896 391.644 369.868 392.311C369.825 393.262 369.84 394.212 369.84 395.192V397.093L370.535 397.264C370.733 397.32 370.932 397.363 371.144 397.405C371.57 397.491 371.967 397.576 372.307 397.718C372.619 397.845 372.931 397.888 373.186 397.916C373.229 397.916 373.257 397.916 373.286 397.916C373.016 398.299 372.747 398.668 372.477 399.052C371.541 400.386 370.577 401.748 369.499 402.997C368.975 403.607 368.492 404.245 368.024 404.87C367.542 405.508 367.074 406.147 366.564 406.729C366.606 406.615 366.635 406.502 366.677 406.388C367.003 405.409 367.344 404.387 367.627 403.366C367.982 402.046 368.237 400.698 368.492 399.392L368.648 398.541C368.748 398.016 368.365 397.675 368.152 397.491C368.095 397.434 368.025 397.377 367.968 397.32L367.415 396.753L366.734 397.193C365.784 397.817 364.862 398.541 364.564 399.648C364.267 400.726 364.025 401.053 363.359 401.209C362.678 401.365 362.38 402.046 362.239 402.372L361.771 403.422C361.218 404.657 360.65 405.934 360.154 407.24C359.587 408.73 359.076 410.234 358.523 411.809C358.282 412.505 358.041 413.2 357.786 413.924L357.516 414.704L358.353 414.988C358.864 415.158 359.36 415.314 359.842 415.471C360.891 415.797 361.785 416.067 362.622 416.464C363.203 416.734 363.728 416.847 364.224 416.847C364.947 416.847 365.6 416.62 366.195 416.336C367.968 415.513 369.57 414.321 371.244 412.576C373.13 410.603 375.03 408.446 377.072 405.977L378.292 404.501C380.603 401.705 383 398.825 385.127 395.83C387.268 392.808 389.253 389.643 391.182 386.563C391.749 385.669 392.302 384.761 392.87 383.867C393.38 383.058 393.834 382.235 394.259 381.426C394.557 380.859 394.869 380.291 395.195 379.738C396.004 378.375 396.812 377.013 397.62 375.636C398.414 374.288 399.208 372.954 400.003 371.606C400.201 371.266 400.371 370.897 400.541 370.542C400.768 370.073 400.967 369.619 401.251 369.25C403.094 366.781 404.526 364.085 405.902 361.488C406.455 360.452 407.008 359.402 407.589 358.38C408.724 356.365 409.787 354.293 410.823 352.292C411.773 350.461 412.751 348.56 413.772 346.715C414.382 345.608 414.963 344.473 415.531 343.352C415.999 342.429 416.467 341.507 416.963 340.585C417.232 340.074 417.559 339.591 417.871 339.109C418.168 338.669 418.452 338.229 418.721 337.775C419.629 336.2 420.381 334.539 421.104 332.936C422.054 330.849 423.032 328.692 424.337 326.762C424.663 326.28 424.848 325.769 425.032 325.272C425.117 325.045 425.188 324.832 425.287 324.62L425.996 323.016C426.634 321.554 427.287 320.064 427.982 318.617C428.138 318.29 428.379 317.978 428.634 317.638C429.017 317.127 429.428 316.588 429.641 315.935C430.109 314.459 430.889 313.153 431.711 311.763C432.122 311.081 432.52 310.4 432.888 309.705L433.03 309.421C433.342 308.839 433.654 308.243 433.881 307.59C434.42 306.029 435.186 304.582 435.994 303.049C436.689 301.715 437.426 300.339 437.979 298.905C438.178 298.38 438.532 297.855 438.915 297.316L439.185 296.933C440.248 295.358 441.042 293.641 441.595 291.682L441.723 291.214C441.907 290.519 442.092 289.866 442.418 289.341C443.396 287.794 444.134 286.162 444.857 284.587L445.212 283.82C446.842 280.273 448.657 276.129 449.579 271.772C449.679 271.318 449.764 270.878 449.834 270.424C450.019 269.388 450.203 268.395 450.544 267.43C451.054 265.954 451.437 264.435 451.806 262.96L452.018 262.122C452.302 261.03 452.529 259.923 452.713 258.858C452.827 258.206 452.912 257.539 452.997 256.872C453.11 255.935 453.238 254.97 453.436 254.048C453.933 251.692 454.131 249.138 454.018 246.228C453.919 243.518 453.791 240.793 453.649 238.083" fill="white"/>
<path d="M902.052 341.266C901.683 340.358 901.329 339.45 900.974 338.527C900.066 336.214 900.251 336.228 899.499 334.071C899.244 333.362 899.003 332.652 898.733 331.943C898.024 330.027 897.344 328.097 896.663 326.167C894.99 321.413 893.259 316.503 891.147 311.777C890.381 310.06 889.643 308.314 888.906 306.583C887.757 303.859 886.566 301.049 885.247 298.324C884.028 295.798 882.865 293.187 881.745 290.661L880.312 287.454C878.299 282.941 876.2 278.286 874.952 273.461C874.612 272.156 874.229 270.694 873.25 269.403C873.08 269.176 872.995 268.736 872.924 268.338L872.896 268.225C872.74 267.416 872.598 266.621 872.456 265.812C872.272 264.734 872.073 263.655 871.86 262.591C871.534 261.016 871.123 259.426 870.698 257.794C870.57 257.298 870.414 256.801 870.258 256.304C870.003 255.495 869.762 254.729 869.634 253.963C869.563 253.566 869.506 253.154 869.435 252.757C869.038 250.273 868.627 247.705 867.252 245.377C867.252 245.349 867.252 245.235 867.237 245.164C867.237 244.937 867.209 244.654 867.081 244.356C866.968 244.1 866.855 243.845 866.755 243.589C866.259 242.411 865.692 241.077 864.359 240.084C863.919 239.758 863.536 239.275 863.139 238.778C862.841 238.409 862.544 238.041 862.189 237.686C861.735 237.232 861.225 236.848 860.771 236.508C860.587 236.366 860.402 236.238 860.232 236.096L859.849 235.784L859.367 235.926C857.991 236.309 857.311 237.146 856.744 237.842L856.602 238.012C855.34 239.545 854.092 241.077 852.801 242.582C848.093 248.102 843.952 253.793 840.18 259.128C839.216 260.491 838.351 261.796 837.571 263.116C837.231 263.684 836.833 264.223 836.422 264.791C835.798 265.656 835.146 266.55 834.678 267.529C834.65 267.558 834.564 267.629 834.508 267.686C834.408 267.771 834.309 267.856 834.224 267.955C832.834 269.445 831.672 271.077 830.551 272.667C829.871 273.632 829.162 274.625 828.424 275.562C827.928 276.186 827.474 276.853 827.006 277.506C826.566 278.144 826.127 278.769 825.645 279.379C825.248 279.876 824.808 280.344 824.34 280.826C823.276 281.948 822.17 283.097 821.646 284.644C821.617 284.686 821.49 284.786 821.405 284.843C821.277 284.942 821.149 285.055 821.036 285.169C820.837 285.368 820.639 285.58 820.44 285.779C820.072 286.162 819.703 286.56 819.292 286.914C818.157 287.922 816.938 289.001 815.647 290.008C815.562 290.065 815.42 290.122 815.25 290.178C815.165 289.753 815.066 289.313 814.966 288.901C814.612 287.34 814.286 285.864 814.357 284.459L814.456 282.416C814.569 280.401 814.669 278.315 814.697 276.243C814.754 272.099 814.924 267.87 815.08 263.783L815.151 262.052C815.193 260.874 815.293 259.682 815.378 258.504C815.434 257.78 815.491 257.071 815.534 256.347C815.576 255.779 815.562 255.212 815.534 254.644C815.534 254.261 815.505 253.864 815.491 253.48C815.463 252.884 815.434 252.288 815.434 251.678C815.449 249.408 815.491 247.123 815.548 244.852C815.562 244.256 815.59 243.66 815.619 243.05C815.675 242.028 815.718 240.978 815.69 239.928C815.633 236.877 815.505 233.826 815.335 230.888C815.264 229.696 815.151 228.504 815.037 227.312C814.924 226.148 814.81 224.971 814.74 223.793C814.598 221.409 814.201 219.323 813.52 217.393C812.74 215.165 811.648 212.681 808.798 211.29C808.713 211.248 808.585 211.12 808.457 211.007C808.259 210.822 808.018 210.581 807.677 210.425C807.337 210.254 807.011 210.027 806.656 209.772C805.976 209.289 805.21 208.75 804.161 208.537L803.607 208.424L803.253 208.821C801.991 210.254 801.424 211.858 800.956 213.362C799.949 216.64 799.14 220.004 798.36 223.253C797.892 225.198 797.425 227.128 796.914 229.058C796.432 230.902 796.035 232.776 795.652 234.592C795.255 236.451 794.858 238.367 794.361 240.24C793.893 242 793.582 243.816 793.284 245.576C793.142 246.413 793 247.236 792.844 248.074C791.979 252.629 791.284 256.106 790.603 259.341C790.164 261.427 789.682 263.499 789.2 265.571L788.788 267.331C788.618 268.055 788.42 268.764 788.221 269.474C787.767 271.049 787.314 272.695 787.228 274.384C787.214 274.441 787.172 274.497 787.143 274.554C787.072 274.696 787.002 274.824 786.959 274.966L786.519 276.257C786.094 277.477 785.669 278.712 785.286 279.947C785.115 280.5 784.959 281.054 784.818 281.621C784.463 282.927 784.137 284.147 783.57 285.325C782.69 287.17 782.123 288.617 781.698 290.008C780.336 294.507 777.855 298.452 775.614 301.701C775.359 302.085 774.962 302.425 774.536 302.78C774.083 303.163 773.629 303.561 773.246 304.071C771.956 305.803 769.956 306.725 768.027 307.52C765.758 308.442 763.206 308.627 760.228 308.073C757.122 307.491 754.938 306.228 753.563 304.213C751.124 300.666 749.805 297.756 749.28 294.79C749.138 293.982 748.968 293.187 748.812 292.392C748.642 291.583 748.472 290.774 748.33 289.951C748.188 289.1 748.032 288.078 748.032 287.113C748.032 286.247 748.061 285.382 748.103 284.502C748.16 283.111 748.217 281.678 748.131 280.245C748.046 278.811 748.33 277.69 749.067 276.598C749.819 275.491 750.556 274.37 751.294 273.248C752.301 271.73 753.308 270.197 754.343 268.693L756.144 266.082C759.292 261.498 762.539 256.758 765.532 251.976C766.042 251.153 766.524 250.302 767.006 249.464C767.262 249.01 767.517 248.57 767.772 248.116C767.985 247.747 768.212 247.378 768.439 247.009L768.623 246.725C769.048 246.03 769.474 245.349 769.913 244.654C770.849 243.163 771.814 241.617 772.721 240.056C776.068 234.252 778.847 229.412 781.641 224.318L782.01 223.665C782.96 221.948 783.938 220.174 784.577 218.173L784.733 217.691L784.336 217.336C782.308 215.448 780.28 213.646 777.812 212.27L777.373 212.028L776.919 212.241C774.721 213.277 773.047 214.739 771.516 216.144L770.849 216.754C768.524 218.897 766.099 221.111 763.816 223.367C761.603 225.538 759.264 227.894 757.122 230.335C755.421 232.279 753.875 234.365 752.372 236.394L751.563 237.473C747.607 242.738 744.6 248.414 742.615 254.318L742.303 255.212C741.722 256.915 741.126 258.674 740.786 260.477C739.935 265.003 739.297 269.09 738.843 272.979C738.659 274.568 738.687 276.172 738.729 277.719C738.744 278.442 738.758 279.166 738.758 279.89C738.758 280.23 738.786 280.585 738.815 280.94C738.871 281.607 738.928 282.288 738.715 282.714C737.992 284.147 737.935 285.566 737.864 286.929C737.836 287.468 737.808 287.993 737.751 288.532C737.552 290.079 738.049 291.342 738.517 292.577C738.715 293.102 738.9 293.598 739.041 294.095C739.212 294.762 739.878 295.245 740.148 295.415C741.821 296.479 742.7 298.111 743.65 300.14C745.097 303.192 747.238 305.618 750.003 307.35C750.5 307.662 750.968 308.002 751.436 308.343C752.698 309.251 754.002 310.188 755.605 310.599C755.662 310.642 755.803 310.812 755.846 310.855C757.051 312.345 758.824 313.352 761.291 313.892C765.021 314.729 768.58 314.828 771.885 314.218C772.494 314.104 773.416 313.934 773.983 313.352C774.451 312.87 775.089 312.501 775.77 312.118C776.876 311.493 778.124 310.784 778.762 309.407C780.705 309.109 781.343 307.463 781.556 306.91C781.783 306.299 782.237 305.845 782.733 305.32C782.903 305.136 783.088 304.951 783.258 304.767C783.329 304.682 783.428 304.611 783.513 304.525C783.839 304.242 784.25 303.887 784.336 303.333C784.463 302.439 784.605 302.368 785.016 302.283C785.768 302.141 785.881 301.418 785.98 300.864C786.009 300.694 786.009 300.481 785.995 300.282C786.817 299.672 787.044 298.807 787.2 298.154C787.243 297.983 787.285 297.827 787.342 297.657L787.427 297.387C787.583 296.891 787.682 296.593 787.966 296.337C788.505 295.855 788.746 295.117 788.802 294.578C788.873 293.925 789.044 293.272 789.228 292.591C789.526 291.512 789.824 290.391 789.724 289.142V288.986C789.611 287.823 789.653 287.227 790.462 286.914C791.001 286.702 791.313 286.134 791.398 285.226C791.44 284.814 791.44 284.388 791.44 283.977C791.44 283.58 791.44 283.182 791.483 282.785C791.511 282.529 791.525 282.274 791.539 282.019C791.582 281.309 791.624 280.628 791.88 280.159C792.603 278.854 792.759 277.449 792.362 275.888C792.149 275.051 792.206 274.299 792.546 273.476C792.745 273.007 792.887 272.511 793.043 272.028C793.113 271.801 793.184 271.56 793.255 271.333C793.383 270.964 793.34 270.623 793.312 270.368C793.269 270.013 793.284 269.999 793.397 269.914C793.95 269.388 793.964 268.651 793.979 267.998C793.979 267.856 793.979 267.7 793.993 267.558C794.787 266.451 795.028 265.231 794.787 263.684C794.489 261.896 794.801 260.008 795.652 258.362C795.751 258.178 795.85 257.993 795.95 257.809C796.503 256.829 797.127 255.723 796.63 254.261C796.659 254.19 796.73 254.005 796.971 253.651C797.963 252.175 798.261 250.812 797.878 249.478C798.843 248.868 799.282 248.074 799.155 247.123C799.069 246.47 798.899 245.846 798.729 245.25C798.729 245.221 798.729 245.207 798.715 245.179C799.14 244.994 799.793 244.597 799.764 243.603C799.764 243.277 799.935 242.865 800.133 242.426C800.218 242.227 800.303 242.028 800.374 241.844C800.417 241.73 800.488 241.631 800.559 241.517C800.771 241.177 801.041 240.737 800.956 240.212C800.814 239.289 801.353 238.608 802.062 237.743L802.303 237.43L802.218 237.047C802.118 236.607 801.863 236.323 801.693 236.125C801.65 236.082 801.608 236.04 801.622 236.025C801.877 235.415 801.962 234.791 802.033 234.195C802.104 233.627 802.189 233.074 802.402 232.648C802.856 231.726 802.629 230.917 802.473 230.392C802.459 230.349 802.445 230.292 802.43 230.235C802.53 230.15 802.615 230.065 802.714 229.98C803.253 229.498 803.806 228.987 803.593 228.305C803.466 227.866 803.636 227.511 803.976 226.901C804.288 226.347 804.628 225.723 804.6 224.942C804.6 224.715 804.643 224.474 804.728 224.332C805.295 223.367 805.891 222.402 806.5 221.437C806.869 223.779 806.954 225.992 806.983 227.752C807.082 233.315 807.068 238.324 806.983 243.05C806.897 246.853 806.741 250.727 806.6 254.46C806.515 256.489 806.429 258.504 806.359 260.533C806.33 261.484 806.316 262.435 806.302 263.386C806.288 264.337 806.273 265.301 806.231 266.252C806.203 267.075 806.16 267.913 806.103 268.75C806.018 270.183 805.933 271.659 805.947 273.121C805.961 274.299 805.947 275.462 805.933 276.64C805.891 279.634 805.848 282.714 806.359 285.779C806.713 287.894 807.408 290.562 809.804 292.321C810.684 292.974 811.52 293.726 812.329 294.436C812.981 295.017 813.633 295.599 814.328 296.153C814.64 296.408 814.981 296.635 815.321 296.862L815.775 297.175C817.618 298.48 819.533 298.48 821.461 297.175C823.461 295.826 825.375 294.223 827.275 292.307C830.495 289.071 833.302 285.467 836.025 281.99C836.791 281.011 837.557 280.032 838.337 279.053C840.606 276.214 842.775 273.248 844.874 270.382C845.994 268.849 847.115 267.317 848.263 265.798C852.191 260.562 856.12 255.339 860.09 250.131C860.601 249.464 861.211 248.812 861.792 248.187C861.891 248.088 861.976 247.988 862.061 247.889C862.175 248.059 862.232 248.286 862.317 248.641C862.345 248.783 862.388 248.925 862.43 249.067C863.139 251.479 863.962 254.346 864.742 257.255C865.068 258.461 865.351 259.682 865.649 260.902L866.784 265.571C867.351 267.856 867.904 270.141 868.429 272.425C869.038 275.107 870.031 277.704 870.967 280.216C871.435 281.465 871.917 282.714 872.343 283.977C873.775 288.206 875.136 291.995 877.193 295.571C877.816 296.664 878.214 297.558 878.455 298.395C879.178 301.02 880.355 303.475 881.489 305.859C882.411 307.804 883.375 309.819 884.056 311.876L884.141 312.118L884.354 312.288C884.737 312.572 884.85 312.998 885.02 313.665C885.12 314.076 885.247 314.544 885.474 314.984L885.971 315.921C887.204 318.248 888.481 320.661 889.558 323.087C889.913 323.896 890.324 324.705 890.735 325.5C891.515 327.018 892.238 328.437 892.65 330.013C893.174 332.028 893.841 334.341 895.089 336.37C896.195 338.187 895.372 336.654 895.755 337.307C896.323 338.258 896.918 339.194 897.5 340.131L897.457 339.833C897.897 340.557 898.365 341.294 898.875 342.004C899.457 342.813 900.095 343.026 900.619 343.026C900.988 343.026 901.3 342.912 901.499 342.827L901.924 342.557L902.023 342.16C902.094 341.961 902.222 341.621 902.066 341.238" fill="white"/>
<path d="M146.546 269.09C149.028 264.024 151.595 258.788 154.87 254.034C155.707 252.813 156.444 251.508 157.153 250.259C157.962 248.826 158.798 247.335 159.848 245.931C160.727 244.739 161.635 243.518 162.372 242.198C164.599 238.154 167.208 234.195 169.732 230.377C170.781 228.774 171.845 227.184 172.88 225.566C173.065 227.681 173.235 229.668 173.419 231.654C173.476 232.222 174.015 232.435 174.284 232.534C174.355 232.563 174.44 232.591 174.539 232.634L175.603 233.13L175.858 232.052C176.511 229.313 176.95 227 177.248 224.8C177.347 224.034 177.432 223.253 177.517 222.487C177.744 220.344 177.957 218.329 178.68 216.356C179.077 215.292 178.992 214.086 178.893 213.036C178.779 211.929 177.957 211.148 176.638 210.865C175.334 210.595 174.171 210.808 173.036 211.006C172.767 211.049 172.483 211.106 172.2 211.148L171.802 211.205L170.696 212.752C170.101 213.575 169.533 214.341 169.009 215.122L167.52 217.293C165.776 219.833 163.975 222.459 162.273 225.07C161.379 226.432 160.529 227.823 159.692 229.214C158.487 231.186 157.239 233.23 155.891 235.16C152.488 240.013 149.666 244.072 147.014 248.442C144.674 252.317 142.235 256.333 140.136 260.562C137.726 265.429 135.244 270.58 132.294 276.782L131.784 277.875C130.351 280.883 128.877 284.005 127.643 287.17C125.161 293.527 122.609 300.112 120.396 306.838C118.553 312.444 116.823 318.603 115.093 325.67C113.405 332.553 111.661 339.904 110.484 347.453C110.087 349.993 109.633 352.562 109.193 355.06C108.896 356.748 108.598 358.437 108.314 360.126C107.761 363.418 107.307 366.341 106.91 369.08L106.556 371.578C105.818 376.715 105.053 382.037 104.386 387.287C104.06 389.856 103.805 392.481 103.564 395.007C103.422 396.526 103.266 398.044 103.11 399.548C103.053 400.059 102.982 400.556 102.897 401.067C102.869 400.982 102.84 400.882 102.812 400.783C102.769 400.641 102.727 400.485 102.684 400.343C101.933 397.959 101.21 395.547 100.501 393.148L100.217 392.212C100.033 391.616 99.8765 391.005 99.7489 390.395L97.4374 380.249C97.2673 379.511 97.0971 378.773 96.9127 378.035C96.5724 376.573 96.2037 375.069 95.9201 373.593L95.5797 371.862C94.9416 368.64 94.2893 365.32 93.8213 362.027C92.7293 354.393 91.6232 346.034 90.3044 335.703C89.8081 331.843 89.3968 327.912 88.9856 324.109L88.2198 317.155C87.8936 314.232 87.5533 311.209 87.298 308.243C86.8868 303.433 86.5748 298.65 86.3195 294.606C85.7523 285.424 85.2843 277.378 84.8873 269.999C84.7596 267.558 84.6604 265.131 84.5753 262.69C84.5044 260.845 84.4335 259 84.3484 257.141C84.0931 251.848 83.8237 246.569 83.5259 241.276C83.4975 240.808 83.3274 240.382 83.1572 240.013C83.1005 239.871 83.0296 239.715 82.987 239.573L82.6183 238.523L81.6115 239.119C78.5909 240.893 78.3357 241.418 78.1088 243.901L78.0662 244.398C77.9811 245.249 78.0237 246.101 78.0662 246.938V247.25C78.1655 249.038 78.2222 250.826 78.2789 252.6C78.3782 256.12 78.4775 259.738 78.8887 263.315C78.8887 263.357 78.8887 263.471 78.8604 263.556C78.832 263.726 78.8178 263.896 78.8178 264.053C78.8178 264.719 78.7469 265.401 78.6618 266.11C78.5058 267.331 78.364 268.594 78.676 269.899C78.2506 270.85 78.5058 271.744 78.7185 272.482C78.832 272.894 78.9596 273.291 78.9313 273.631C78.7469 275.916 78.8604 278.215 78.9596 280.429C79.0447 282.146 79.1298 283.92 79.0731 285.651C79.0305 286.999 79.0731 288.348 79.0731 289.667L79.1014 291.143C79.1014 291.824 79.1014 292.506 79.1014 293.187C79.0872 294.776 79.0589 296.436 79.2716 298.054C79.6545 301.034 79.7679 304.071 79.8672 307.037C79.9097 308.371 79.9665 309.719 80.0374 311.053C80.165 313.522 80.4203 316.006 80.6755 318.418C80.8315 319.951 80.9875 321.484 81.1151 323.016C81.2569 324.705 81.4413 326.38 81.6256 328.068C81.7533 329.204 81.8667 330.325 81.9802 331.46C82.1078 332.808 82.2354 334.17 82.3489 335.519C82.5049 337.335 82.675 339.166 82.8594 340.982C83.1855 344.104 83.5684 347.269 83.9088 349.965C84.1782 352.051 84.476 354.137 84.788 356.209C85.1 358.309 85.4403 360.41 85.7807 362.51L85.8941 363.234C86.0217 364.014 86.1352 364.795 86.2486 365.575C86.5323 367.463 86.8301 369.407 87.2271 371.323C87.6384 373.295 88.1063 375.282 88.5743 377.198C88.9572 378.801 89.3401 380.391 89.6946 381.994C89.8648 382.732 90.0066 383.484 90.1626 384.236C90.6306 386.592 91.1269 389.033 91.9919 391.389C93.0413 394.241 93.8213 397.122 94.3176 399.946C95.055 404.118 96.9269 407.864 98.7421 411.512L99.0824 412.178C99.9616 413.952 101.351 415.996 104.315 416.124C104.344 416.124 104.358 416.152 104.386 416.166C104.556 416.266 104.812 416.407 105.152 416.436C105.521 416.478 105.903 416.493 106.286 416.493C108.144 416.493 110.002 415.897 110.484 413.172C110.583 412.618 110.668 412.051 110.739 411.497C111.023 408.943 111.306 406.389 111.576 403.834L111.633 403.309C111.789 401.933 111.945 400.556 112.101 399.194C112.483 395.901 112.866 392.51 113.122 389.161C113.348 386.067 113.675 383.342 114.072 380.802C114.412 378.702 114.724 376.587 115.036 374.487C115.802 369.378 116.582 364.099 117.759 358.976C117.957 358.096 118.071 357.188 118.184 356.323C118.269 355.67 118.354 355.003 118.482 354.35L118.695 353.215C119.219 350.419 119.772 347.524 120.411 344.7C120.879 342.671 121.261 340.613 121.63 338.612C122.268 335.164 122.935 331.588 124.027 328.168C124.679 326.11 125.246 324.01 125.799 321.98C126.579 319.071 127.388 316.063 128.465 313.196C129.16 311.337 129.742 309.421 130.309 307.562C130.791 305.973 131.302 304.312 131.869 302.723C133.088 299.331 134.506 295.67 136.35 291.214C139.371 283.906 142.746 276.924 146.532 269.19L146.589 269.062L146.546 269.09Z" fill="white"/>
<path d="M624.459 295.912C625.409 293.371 626.402 290.746 626.728 287.936C626.756 287.667 626.927 287.326 627.097 286.985C627.196 286.787 627.31 286.574 627.395 286.375L627.565 285.992C627.707 285.68 627.848 285.353 627.962 285.027C628.401 283.594 628.784 282.161 629.181 280.727C629.933 277.917 630.727 275.022 631.89 272.312C632.088 271.858 632.159 271.375 632.23 270.964C632.259 270.751 632.301 270.538 632.344 270.325C632.486 269.786 632.642 269.247 632.798 268.707L632.925 268.267C633.11 267.629 633.308 266.99 633.507 266.352C633.946 264.904 634.4 263.414 634.769 261.924C635.052 260.746 635.222 259.554 635.393 258.391C635.492 257.766 635.577 257.142 635.69 256.517C635.719 256.333 635.804 256.148 635.875 255.964C635.917 255.85 635.96 255.737 636.002 255.623C636.116 255.283 636.258 254.942 636.385 254.602C636.697 253.821 637.023 253.012 637.179 252.146C637.619 249.904 638.002 247.662 638.399 245.406C638.711 243.603 639.023 241.815 639.363 240.027C640.058 236.281 639.874 232.549 639.633 229.71C639.349 226.361 638.115 225.737 634.825 225.666C634.443 225.666 634.06 225.694 633.734 225.737L632.911 225.808L632.273 227.17C631.989 227.78 631.72 228.334 631.465 228.902L631.252 229.384C630.713 230.604 630.146 231.867 630.217 233.429C630.273 234.635 630.075 235.969 629.664 237.161C629.238 238.367 628.884 239.687 629.621 241.177C629.664 241.319 629.564 241.759 629.508 241.986L628.855 244.838C628.175 247.847 627.465 250.954 626.671 253.977C625.409 258.788 624.005 263.584 622.8 267.7C621.821 271.035 620.744 274.398 619.694 277.648L619.524 278.187C617.936 283.168 616.305 288.135 614.688 293.102C613.994 295.23 613.299 297.345 612.59 299.474L611.242 303.546C610.207 306.683 609.186 309.819 608.151 312.998C608.052 313.296 607.967 313.551 607.853 313.778C607.612 313.253 607.385 312.756 607.215 312.245C607.087 311.877 607.017 311.493 606.931 311.068C606.818 310.486 606.705 309.876 606.435 309.28C606.01 308.315 605.882 307.279 605.726 306.172C605.556 304.866 605.372 303.518 604.705 302.212C605.244 300.779 604.662 299.559 604.195 298.58C604.067 298.31 603.939 298.054 603.84 297.785C603.769 297.6 603.67 297.402 603.585 297.231C603.485 297.033 603.386 296.834 603.344 296.678C602.918 294.748 602.493 292.832 602.067 290.902C601.628 288.915 601.202 286.929 600.749 284.942C600.649 284.53 600.507 284.119 600.366 283.707C600.238 283.338 600.11 282.984 600.025 282.6C599.444 279.847 598.99 277.563 598.593 275.391C598.366 274.157 597.941 272.979 597.529 271.844C597.005 270.396 596.494 269.02 596.409 267.572C596.381 267.161 596.196 266.82 596.055 266.536C596.012 266.451 595.955 266.366 595.927 266.281L595.076 264.322C594.282 262.506 593.46 260.619 592.736 258.759C592.297 257.638 591.815 256.517 591.347 255.41C591.035 254.672 590.723 253.935 590.411 253.197C588.34 248.173 585.986 242.866 582.101 238.197C580.583 236.38 578.697 235.358 576.315 234.365C575.776 234.138 575.18 234.152 574.712 234.152H574.5C573.521 234.152 572.741 234.535 572.387 235.188C572.075 235.77 572.174 236.465 572.656 237.076C573.308 237.884 573.564 238.793 573.776 239.744C573.989 240.638 574.287 241.517 574.585 242.355L574.882 243.192C575.124 243.916 575.634 244.895 577.251 245.051L577.86 245.108L578.697 243.703C578.867 244.072 578.967 244.483 579.066 244.909C579.165 245.292 579.25 245.704 579.406 246.101C580.129 247.903 580.867 249.706 581.604 251.494C581.987 252.416 582.37 253.339 582.753 254.275C585.788 261.697 588.213 268.551 590.155 275.235C590.879 277.733 591.432 280.216 591.843 282.104C592.041 283.069 592.325 284.005 592.594 284.914C592.992 286.276 593.374 287.567 593.53 288.915C593.757 290.732 594.225 292.534 594.693 294.265L595.005 295.443C595.516 297.402 596.097 299.502 596.863 302.028C597.7 304.809 598.905 308.442 600.819 311.848L600.905 312.004C601.004 312.175 601.131 312.402 601.146 312.501C601.358 315.41 602.89 317.752 604.436 320.122C604.989 320.973 605.13 321.47 604.989 322.023C604.705 323.087 604.421 324.123 604.067 325.103C603.911 325.542 603.727 325.968 603.528 326.394C603.301 326.891 603.074 327.402 602.904 327.912C602.564 328.92 602.238 329.928 601.911 330.935C601.387 332.595 600.834 334.313 600.21 335.944C599.784 337.066 599.501 338.258 599.345 339.577C599.146 341.337 598.692 342.586 597.841 343.735C596.622 345.41 596.04 347.283 595.771 348.575C595.672 349.029 595.615 349.497 595.573 349.951C595.445 351.058 595.331 352.023 594.594 352.789L594.381 353.002V353.3C594.282 354.421 593.885 355.5 593.46 356.635C593.19 357.373 592.906 358.153 592.708 358.948C592.325 360.509 591.9 362.07 591.474 363.631C591.247 364.454 591.02 365.277 590.808 366.1L590.411 367.591C589.886 369.563 589.361 371.536 588.865 373.522C588.468 375.154 588.057 376.9 587.759 378.645C587.589 379.695 587.489 380.76 587.39 381.782C587.333 382.378 587.277 382.974 587.206 383.57C587.036 384.989 586.766 386.422 586.497 387.813C586.142 389.686 585.759 391.616 585.632 393.588C585.49 395.902 585.688 398.101 585.915 399.96C585.972 400.457 586.114 401.181 586.681 401.55C586.979 401.734 587.092 401.904 586.894 402.571C586.256 404.728 587.901 406.105 588.439 406.559C589.134 407.141 590.226 407.921 591.517 408.305C592.424 408.574 593.233 408.886 594.041 409.284C594.807 409.653 595.53 409.837 596.239 409.837C597.317 409.837 598.352 409.411 599.387 408.532C601.415 406.829 602.932 404.799 604.563 402.288C605.613 400.656 606.676 398.456 605.528 395.802L604.946 394.44L602.861 396.838C602.067 397.761 601.33 398.612 600.564 399.464C599.316 400.854 598.281 401.947 597.303 402.912C596.65 403.565 595.955 404.147 595.246 404.643C595.105 404.743 594.977 404.771 594.92 404.757C594.863 404.728 594.778 404.629 594.75 404.43L594.722 404.289C594.481 402.955 594.225 401.578 594.31 400.287C594.58 396.214 594.949 392.042 595.445 387.515C595.927 383.087 596.905 378.645 597.841 374.331L598.196 372.713C598.877 369.606 599.572 366.398 600.763 363.305C601.798 360.623 602.862 357.841 603.627 355.017L603.911 353.939C604.62 351.271 605.286 348.759 606.407 346.304C607.031 344.942 607.584 343.423 608.236 341.394C608.491 340.585 608.832 339.819 609.186 339.01C609.541 338.229 609.895 337.406 610.165 336.555C610.718 334.838 611.356 332.979 612.136 330.878C612.547 329.757 612.958 328.792 613.398 327.941C613.469 327.799 613.809 327.572 614.135 327.373C614.249 327.288 614.391 327.245 614.532 327.174C614.816 327.061 615.171 326.905 615.483 326.635C615.951 326.224 616.177 325.656 616.092 325.145C616.021 324.691 615.724 324.322 615.256 324.109C614.83 323.911 614.774 323.882 615.043 323.13C615.653 321.498 616.333 319.568 616.844 317.581C617.014 316.929 617.269 316.304 617.553 315.637C617.879 314.842 618.234 314.019 618.404 313.14C618.829 310.997 619.524 309.081 620.545 307.293C620.886 306.697 621.07 306.058 621.254 305.448C621.311 305.235 621.382 305.022 621.453 304.824C622.048 302.993 622.658 301.162 623.24 299.317C623.608 298.168 624.048 297.004 624.473 295.883" fill="white"/>
<path d="M484.521 352.704C486.464 352.704 488.492 352.293 490.35 350.916C490.491 350.888 490.69 350.845 490.889 350.732L491.654 350.292C493.016 349.525 494.42 348.731 495.512 347.51L496.178 346.772C497.639 345.154 499.128 343.48 500.532 341.763C501.141 341.025 501.638 340.216 502.12 339.435C502.375 339.024 502.63 338.612 502.9 338.215C503.68 337.051 504.474 335.874 505.268 334.71C506.615 332.723 507.962 330.736 509.295 328.721C509.99 327.671 510.742 326.422 510.983 324.946C511.99 324.067 512.486 322.931 512.912 321.924C513.068 321.569 513.209 321.228 513.38 320.888L513.507 320.647C515.365 316.999 517.279 313.21 519.052 309.45C519.492 308.513 519.832 307.548 520.158 306.612C520.598 305.377 521.009 304.213 521.619 303.135C522.725 301.176 523.561 299.133 524.37 297.16L524.526 296.763C524.568 296.664 524.625 296.579 524.682 296.479C524.767 296.337 524.852 296.195 524.909 296.068C525.504 294.762 526.1 293.457 526.695 292.151C527.858 289.611 529.007 287.056 530.198 284.53C531.857 280.997 533.602 277.435 535.303 273.972L535.431 274.739C535.743 276.683 536.041 278.528 536.339 280.358L537.048 284.672C537.757 288.93 538.48 293.329 539.26 297.657C540.125 302.439 541.954 306.995 543.741 311.408C544.11 312.331 544.478 313.253 544.847 314.175C545.244 315.197 545.911 316.077 546.549 316.928C546.832 317.297 547.102 317.666 547.357 318.05C547.442 318.191 547.556 318.319 547.655 318.447C547.754 318.575 547.939 318.788 547.953 318.873C548.066 319.667 548.52 320.221 548.889 320.675C549.059 320.888 549.229 321.072 549.328 321.271C550.931 324.223 553.228 326.649 556.164 328.466C556.305 328.551 556.447 328.679 556.617 328.863C558.277 330.694 560.531 331.531 562.531 332.184C564.658 332.865 566.998 333.064 569.933 332.78C571.139 332.666 571.975 331.985 572.273 330.864L572.528 329.899L571.465 329.8C571.039 329.757 570.614 329.743 570.217 329.729C569.465 329.7 568.813 329.672 568.288 329.502C564.729 328.352 562.148 326.72 560.389 324.521C559.652 323.598 558.787 323.556 558.206 323.513L558.064 323.286C557.794 322.875 557.525 322.477 557.284 322.051C556.83 321.243 556.334 320.476 555.837 319.738C554.76 318.121 553.753 316.602 553.356 314.786C553.129 313.75 552.533 312.629 551.739 311.735C550.831 310.713 550.647 309.521 550.434 308.13L550.392 307.832C550.179 306.484 549.966 305.093 549.598 303.717L549.357 302.808C548.69 300.339 547.995 297.785 547.031 295.316C546.818 294.79 546.733 294.18 546.648 293.542C546.62 293.3 546.577 293.045 546.535 292.818C546.421 292.123 546.308 291.413 546.209 290.718L543.443 272.34C543.599 269.743 542.819 267.388 542.053 265.103C541.756 264.195 541.458 263.343 541.231 262.463L541.132 262.08L540.749 261.896C536.523 259.909 536.282 259.781 533.361 260.164L532.921 260.221L532.694 260.576C532.481 260.902 532.269 261.243 532.07 261.598C531.63 262.321 531.162 263.074 530.666 263.783C528.652 266.65 527.178 269.772 525.745 272.794C524.965 274.441 524.171 276.143 523.25 277.846C523.164 278.002 523.079 278.159 523.008 278.315C522.711 278.996 522.455 279.691 522.2 280.401C521.69 281.834 521.193 283.182 520.3 284.346C520.101 284.616 520.016 284.885 519.945 285.112C519.931 285.183 519.903 285.254 519.874 285.311C519.293 286.758 518.726 288.22 518.159 289.668C516.811 293.116 515.407 296.664 513.904 300.112C513.493 301.063 513.124 302.028 512.741 302.979C512.004 304.866 511.252 306.824 510.189 308.613C509.82 309.237 509.536 309.89 509.253 310.514C509.125 310.812 508.983 311.11 508.842 311.408C508.104 312.941 507.494 314.53 506.899 316.063C505.977 318.447 505.041 320.916 503.623 323.116C502.744 324.492 501.95 325.926 501.184 327.316C500.546 328.48 499.879 329.672 499.17 330.822C498.39 332.085 497.568 333.319 496.745 334.554C495.625 336.228 494.462 337.974 493.441 339.762C492.009 342.259 489.782 344.346 486.634 346.134C485.046 347.042 481.983 348.12 479.345 345.112C478.594 344.26 477.814 343.366 477.303 342.43C475.559 339.308 474.339 336.101 473.673 332.893C472.382 326.692 472.17 320.405 472.127 315.609C472.099 311.678 472.269 307.662 472.439 303.788C472.51 302.085 472.595 300.396 472.652 298.693C472.694 297.331 472.765 295.968 472.822 294.592L473.134 287.553C473.418 281.238 473.687 274.923 473.956 268.608C473.956 268.409 473.971 268.196 473.971 267.984C473.971 267.984 473.971 267.998 473.971 268.012L477.87 277.69L477.927 277.832C478.026 278.102 478.154 278.457 478.48 278.74C478.821 279.038 479.444 279.308 480.054 279.209C480.565 279.124 481.472 278.57 481.387 277.804V277.648C481.288 276.853 481.203 276.03 480.905 275.221C478.976 270.041 477.388 265.273 476.055 260.647C475.531 258.816 474.878 257 474.254 255.24C473.971 254.445 473.687 253.636 473.403 252.842L473.233 252.331L472.666 252.26C470.496 251.962 468.61 252.501 466.795 253.026L465.618 253.353L465.547 253.92C465.419 254.97 465.59 255.907 465.746 256.801C465.845 257.369 465.944 257.908 465.958 258.419L466.001 259.895C466.072 262.52 466.143 265.245 465.845 267.856C465.604 269.899 465.561 271.957 465.519 273.944C465.49 275.122 465.462 276.285 465.405 277.463C465.377 278.045 465.49 278.599 465.604 279.138C465.717 279.677 465.831 280.174 465.746 280.571C465.405 282.175 465.462 283.75 465.519 285.282C465.561 286.56 465.604 287.78 465.434 288.986C465.349 289.568 465.334 290.136 465.32 290.689C465.306 291.314 465.292 291.896 465.178 292.449C464.966 293.485 465.079 294.45 465.193 295.372C465.264 295.997 465.334 296.579 465.306 297.146C465.249 298.267 465.136 299.403 465.037 300.524C464.98 301.105 464.923 301.687 464.881 302.269C464.81 303.05 464.725 303.944 464.526 304.838C464.101 306.739 464.186 308.854 464.81 311.153C464.852 311.323 464.923 311.479 465.008 311.621C465.037 311.678 465.065 311.749 465.065 311.806C464.427 313.594 463.746 316.29 465.093 319.071C465.334 319.582 465.363 319.923 465.334 320.008C465.037 320.774 465.107 321.484 465.164 322.122C465.193 322.477 465.235 322.804 465.178 323.073C464.866 324.932 465.221 326.649 465.561 328.31L465.774 329.317C465.831 329.587 465.902 329.871 465.873 330.027C465.547 331.758 465.788 333.333 466.597 334.809C466.994 335.533 467.064 335.973 467.05 336.2C466.937 338.286 467.802 340.003 468.639 341.678C468.78 341.961 468.922 342.245 469.05 342.529C469.362 343.168 469.759 343.75 470.142 344.317C470.454 344.757 470.737 345.183 470.978 345.623C472.921 349.213 476.027 351.398 480.182 352.151C481.487 352.378 483.004 352.647 484.578 352.647" fill="white"/>
<path d="M298.07 335.504L297.389 336.512C297.347 335.987 297.134 335.447 296.552 334.951L295.971 334.468L294.298 335.703C294 335.334 293.745 335.008 293.631 334.695C292.78 332.311 292.114 330.296 291.589 328.238C290.455 323.768 289.405 319.213 288.384 314.785L288.356 314.658C287.703 311.848 286.867 309.052 286.044 306.342C285.69 305.135 285.321 303.943 284.967 302.737C283.988 299.331 282.74 296.011 281.265 292.846C279.379 288.802 276.841 286.332 273.267 285.069C273.111 285.013 272.941 284.97 272.771 284.927L272.445 284.842H272.275C269.722 285.098 267.751 285.949 266.446 287.425C264.83 289.227 263.213 291.242 261.653 293.399C260.49 295.017 259.427 296.706 258.391 298.338L257.498 299.743C254.875 303.844 252.577 308.286 250.663 312.926C248.408 318.376 246.621 323.328 245.203 328.04C245.189 325.556 244.905 323.101 244.636 320.703C244.551 319.937 244.466 319.17 244.381 318.39C243.941 314.033 242.636 309.819 241.374 305.76L240.807 303.915C240.679 303.503 240.467 303.149 240.24 302.751L239.673 301.772C238.836 300.325 237.999 298.891 237.12 297.472C236.822 296.976 236.354 296.266 235.688 295.727C234.369 294.662 232.766 294.223 231.277 294.535C229.944 294.819 228.881 295.656 228.314 296.876C227.817 297.955 227.548 299.189 227.534 300.552C227.534 301.162 227.151 301.857 226.754 302.595C226.541 302.993 226.328 303.39 226.158 303.787C225.988 304.213 226.059 304.639 226.13 304.866C226.314 305.476 226.073 306.072 225.789 306.767C225.718 306.938 225.662 307.108 225.591 307.264L225.364 307.874C224.641 309.79 223.889 311.777 224.258 314.019C224.258 314.062 224.244 314.175 224.187 314.274C223.478 315.495 223.336 316.772 223.194 318.007C223.095 318.887 223.01 319.71 222.712 320.49C222.287 321.625 222.854 322.874 224.116 323.598C224.811 323.995 225.874 323.598 226.286 323.172C226.683 322.747 226.739 322.193 226.796 321.682C226.853 321.242 226.867 320.788 226.895 320.334C226.938 319.511 226.981 318.745 227.193 318.035C228.158 314.97 229.278 311.706 230.838 307.449C231.164 306.555 231.632 305.689 232.128 304.781C232.199 304.653 232.256 304.539 232.327 304.412C233.603 306.81 234.184 309.535 234.596 311.876C234.964 314.062 235.12 316.332 235.276 318.546C235.404 320.348 235.532 322.221 235.787 324.066C235.929 325.116 235.9 326.138 235.886 327.231C235.886 327.869 235.858 328.494 235.886 329.132C236.028 333.787 236.071 337.675 235.801 341.564C235.489 346.091 235.461 350.731 235.447 354.705C235.447 355.712 235.518 356.734 235.574 357.727C235.603 358.182 235.631 358.65 235.659 359.104L235.688 359.558L236.099 359.799C237.531 360.637 239.148 361.445 241.034 361.445C241.871 361.445 242.764 361.275 243.714 360.878L244.083 360.722L244.21 360.367C244.324 360.041 244.466 359.714 244.608 359.374C244.962 358.551 245.331 357.699 245.373 356.762C245.43 355.201 245.955 353.782 246.494 352.264C246.706 351.668 246.933 351.058 247.118 350.447C247.6 348.915 248.195 347.368 248.791 345.878C249.33 344.516 249.883 343.096 250.351 341.677C250.45 341.351 250.564 341.039 250.677 340.712C250.946 339.903 251.244 339.066 251.457 338.215C252.974 332.169 255.172 325.769 258.363 318.078C258.576 317.581 258.831 317.098 259.115 316.588C259.285 316.29 259.455 315.977 259.611 315.679L259.866 315.169C260.164 314.587 260.476 313.991 260.731 313.352C261.511 311.337 262.646 309.478 263.723 307.676C264.05 307.136 264.376 306.583 264.688 306.029C265.383 304.852 266.092 303.617 266.872 302.482C268.006 300.807 269.112 299.402 270.233 298.196L270.715 297.685C271.452 296.905 272.232 296.096 272.799 295.088C272.828 295.088 272.856 295.06 272.899 295.046C272.998 295.244 273.097 295.443 273.196 295.642C273.664 296.578 274.104 297.458 274.444 298.338C274.87 299.431 275.224 300.566 275.565 301.673C275.749 302.283 275.947 302.907 276.146 303.518C278.018 309.152 279.337 314.956 280.386 319.908C280.542 320.646 280.684 321.37 280.84 322.108C281.265 324.222 281.705 326.394 282.301 328.522C283.279 331.971 284.456 335.589 285.817 339.307L286.002 339.804C286.924 342.359 287.874 344.984 289.987 347.183C290.738 347.964 291.759 349.028 293.56 349.057C295.035 349.057 296.524 348.73 298.197 347.964C298.821 347.68 299.119 347.027 299.19 346.843L299.289 346.587C299.502 346.048 299.743 345.438 299.786 344.799C299.942 342.756 300.013 340.954 300.013 339.293C300.013 338.371 299.885 337.193 298.892 336.228L298.07 335.433V335.504Z" fill="white"/>
<path d="M192.493 315.282C192.166 315.793 191.826 316.304 191.471 316.8C190.989 317.51 190.479 318.248 190.025 319.014C189.174 320.447 188.394 321.923 187.628 323.357L187.217 324.137C186.707 325.088 186.21 326.025 185.728 326.975C185.033 328.309 184.324 329.643 183.601 330.977C182.608 332.794 181.573 334.596 180.552 336.398L179.9 337.562C179.602 338.087 179.333 338.569 178.992 338.981C177.985 340.173 177.163 341.564 176.454 343.252C176.113 344.076 175.603 344.856 174.795 345.793C174.086 346.63 173.49 347.538 172.923 348.418C172.738 348.716 172.54 349.014 172.341 349.312L170.399 352.25C169.094 354.208 167.803 356.181 166.485 358.125C166.286 358.408 165.974 358.692 165.634 358.976C165.492 359.104 165.336 359.232 165.208 359.359C163.308 361.105 161.904 362.694 160.798 364.355C159.366 366.512 157.281 368.399 154.601 369.988C152.531 369.137 151.41 367.803 150.857 365.603C149.85 361.559 150.673 357.742 151.722 354.222L152.148 352.775C153.027 349.738 153.949 346.602 155.253 343.664C155.665 342.727 156.062 341.777 156.444 340.84C157.423 338.47 158.43 336.029 159.848 333.801C161.294 331.545 162.542 329.161 163.762 326.848C164.301 325.826 164.84 324.804 165.393 323.797C165.478 323.64 165.563 323.47 165.648 323.314C165.804 323.002 165.96 322.69 166.144 322.463C167.094 321.242 167.988 319.965 168.839 318.745C170.427 316.474 172.072 314.118 174.071 312.103C174.695 311.465 175.305 310.812 175.915 310.145C177.234 308.712 178.482 307.349 179.985 306.214L180.736 305.646C182.041 304.653 183.388 303.631 184.792 302.78C185.643 302.269 186.749 301.971 187.827 301.687L188.096 301.616C188.238 301.573 188.408 301.545 188.579 301.545C188.961 301.545 189.401 301.701 189.784 302.311C190.082 302.794 190.38 303.262 190.677 303.745C191.5 305.036 192.337 306.37 192.975 307.718C193.272 308.343 193.272 309.194 193.287 310.017C193.287 310.258 193.287 310.5 193.287 310.741C193.287 310.996 193.244 311.28 193.187 311.592C193.116 311.99 193.046 312.444 193.074 312.912C193.145 313.778 192.96 314.558 192.493 315.282ZM213.197 353.044C213.027 352.69 212.871 352.335 212.715 351.98C212.516 351.526 212.318 351.086 212.105 350.646C211.608 349.567 211.14 348.56 210.843 347.496L210.573 346.559C210.049 344.672 209.51 342.727 208.63 340.868C208.418 340.428 208.29 339.889 208.219 339.279C208.134 338.484 208.077 337.69 208.021 336.895C207.836 334.511 207.652 332.056 206.829 329.657C206.815 329.601 206.801 329.459 206.829 329.246C207.212 327.131 206.915 325.088 206.617 323.101C206.503 322.363 206.39 321.611 206.319 320.873C206.078 318.447 205.936 315.963 205.879 313.324C205.865 312.472 205.766 311.635 205.681 310.812C205.624 310.273 205.567 309.747 205.525 309.208C205.44 307.931 204.419 306.895 203.213 306.867C202.802 306.852 202.348 306.711 201.894 306.569C201.044 306.299 200.093 306.001 198.931 306.299C198.775 306.327 198.293 306.157 198.066 306.058C198.037 306.058 197.995 306.029 197.966 306.015C197.867 305.689 197.782 305.377 197.683 305.079C197.399 304.199 197.172 303.418 197.073 302.666C196.804 300.381 195.073 299.416 193.67 298.622C193.258 298.395 192.847 298.168 192.464 297.898L192.181 297.756C187.458 296.422 183.048 297.586 178.992 299.062C178.794 299.133 178.652 299.232 178.538 299.317C176.298 300.864 174.327 302.737 172.682 304.355C171.164 305.845 169.86 307.037 168.555 308.073C167.406 308.981 166.329 309.918 165.776 311.365C165.634 311.734 165.265 312.132 164.996 312.387C163.067 314.274 161.365 316.502 159.791 319.199C159.635 319.482 159.479 319.766 159.323 320.064C158.94 320.788 158.586 321.483 158.075 321.909C156.657 323.087 155.636 324.492 155.069 326.067C154.303 328.182 153.183 330.126 151.637 332.013C151.027 332.751 150.488 333.702 150.02 334.88C149.68 335.703 149.397 336.554 149.099 337.392C148.631 338.74 148.177 340.017 147.581 341.223L147.312 341.762C146.844 342.656 146.376 343.579 146.277 344.7C146.234 344.743 146.192 344.785 146.163 344.828C146.036 344.97 145.88 345.126 145.752 345.339L145.681 345.452C145.369 345.991 145.043 346.545 144.816 347.155C144.504 347.992 144.249 348.844 143.994 349.667L143.866 350.078C143.228 352.179 142.59 354.279 141.966 356.393C141.866 356.72 141.781 357.216 141.966 357.685C142.32 358.692 142.037 359.714 141.739 360.807C141.682 361.034 141.611 361.261 141.554 361.474C141.271 362.566 141.242 363.531 141.441 364.525L141.611 365.32C141.753 365.93 141.881 366.554 141.966 367.179C142.193 368.697 143.043 369.946 144.49 370.897L145.128 371.322C146.461 372.202 147.822 373.11 149.354 373.735C151.495 374.6 153.438 375.012 155.31 375.012C155.991 375.012 156.657 374.955 157.324 374.856C160.727 374.302 163.308 372.486 165.875 370.499C168.385 368.569 170.313 366.157 172.185 363.815L173.334 362.382C174.766 360.608 176.255 358.763 177.532 356.819C179.12 354.364 180.878 351.838 182.736 349.326C185.161 346.076 187.16 342.543 188.791 339.52L189.174 338.796C191.585 334.341 194.067 329.757 196.917 325.301C197.016 327.997 197.3 331.218 198.122 334.383C198.406 335.462 198.576 336.569 198.76 337.732C198.902 338.655 199.058 339.62 199.257 340.556L199.512 341.72C200.15 344.601 200.803 347.581 201.965 350.447C202.504 351.781 203.072 353.101 203.639 354.407L204.447 356.28C204.844 357.216 205.582 357.883 206.617 358.238C208.517 358.891 210.361 358.948 212.133 358.423C213.041 358.153 213.665 357.713 213.991 357.117C214.317 356.535 214.331 355.826 214.048 355.031C213.807 354.321 213.48 353.655 213.183 353.002" fill="white"/>
<path d="M652.226 312.543C651.332 312.472 650.439 312.444 649.489 312.416C648.567 312.387 647.588 312.359 646.482 312.274L644.908 312.16L645.561 313.48C645.717 313.806 645.873 314.09 646 314.331C646.227 314.771 646.397 315.083 646.497 315.396C647.319 317.723 649.205 318.929 652.07 318.972C654.665 319 657.43 319.114 660.55 319.284C662.904 319.412 665.414 319.539 667.981 319.398C668.576 319.369 669.186 319.426 669.838 319.483C670.845 319.582 671.895 319.667 673.001 319.454C673.114 319.511 673.256 319.568 673.412 319.596C674.008 319.71 674.603 319.809 675.199 319.88C677.51 320.135 679.836 320.093 682.077 320.036C684.147 319.994 686.274 319.937 688.345 320.15C688.401 320.15 688.444 320.15 688.501 320.15C688.642 320.15 688.784 320.135 688.883 320.107L691.294 319.752C694.57 319.27 697.846 318.787 701.122 318.276C701.703 318.191 702.284 318.007 702.795 317.737L703.348 317.468C704.227 317.028 705.149 316.588 705.957 315.978C706.808 315.339 707.815 314.487 708.07 313.437C708.623 311.167 708.184 308.981 706.808 307.264L706.624 307.037C706.057 306.328 705.56 305.717 705.234 304.951C704.894 304.185 704.426 303.504 703.972 302.837C703.688 302.425 703.405 302.014 703.164 301.588C702.185 299.871 700.866 298.409 699.59 297.004C699.221 296.593 698.853 296.195 698.498 295.784C697.321 294.45 696.172 293.045 694.967 291.512C693.946 290.207 692.812 288.972 691.705 287.766C690.514 286.46 689.266 285.112 688.217 283.707L687.281 282.472C685.934 280.699 684.558 278.854 683.353 276.981C681.126 273.49 679.226 269.729 677.383 266.11C676.759 264.876 676.135 263.641 675.497 262.421C674.773 261.044 674.206 259.554 673.667 258.106C673.029 256.432 672.363 254.686 671.441 253.054C671.427 253.012 671.398 252.884 671.384 252.799C671.356 252.671 671.327 252.544 671.299 252.43L670.831 250.883C670.547 249.918 670.25 248.939 669.98 247.96L669.739 247.108C669.356 245.76 668.959 244.355 668.647 242.979C667.881 239.658 667.555 236.153 667.64 232.293C667.725 228.362 668.193 225.141 670.179 222.246C670.363 221.99 670.477 221.706 670.576 221.465L670.618 221.366C670.888 220.756 671.356 220.273 671.966 219.748C674.745 217.35 677.936 215.647 681.722 214.554C685.423 213.49 690.33 212.355 695.52 213.149C696.073 213.234 696.626 213.249 697.151 213.263H697.69C704.638 213.575 711.417 215.76 717.869 219.762C721.017 221.721 723.981 224.332 727.484 228.22C727.612 228.362 727.725 228.561 727.853 228.774C728.08 229.143 728.321 229.568 728.746 229.895C730.533 231.257 731.781 233.003 733.114 235.216C733.454 235.784 733.809 236.323 734.177 236.877C735.198 238.424 736.163 239.885 736.531 241.56C736.773 242.695 737.212 243.759 737.638 244.781C738.219 246.214 738.772 247.548 738.815 248.996C738.829 249.464 739.183 250.046 739.779 250.245C740.261 250.401 740.97 250.628 741.566 250.273C742.105 249.947 742.587 249.393 742.814 248.811C743.367 247.392 743.012 246.058 742.658 245.037C742.431 244.412 742.232 243.788 742.02 243.163C741.509 241.631 740.984 240.041 740.233 238.509C739.821 237.686 739.467 236.806 739.112 235.968C738.659 234.89 738.191 233.769 737.623 232.705C736.602 230.803 735.284 228.618 733.185 226.915C732.575 226.418 732.064 225.779 731.54 225.098C731.27 224.758 731.001 224.417 730.717 224.091C729.413 222.601 727.81 221.451 726.264 220.344C725.555 219.847 724.861 219.337 724.18 218.812C721.826 216.938 719.061 215.377 715.459 213.887C712.92 212.837 710.297 211.9 707.744 210.992C706.837 210.666 705.943 210.354 705.036 210.027C701.221 208.637 697.208 208.041 693.322 207.459L691.379 207.161C689.649 206.891 687.962 206.962 686.331 207.019C685.012 207.076 683.778 207.118 682.53 207.005H682.374L682.233 207.019C681.297 207.217 680.361 207.388 679.425 207.572C676.532 208.126 673.525 208.693 670.703 209.885C665.542 212.071 662.039 215.562 660.266 220.259C658.692 224.46 658.224 229.043 658.891 233.897C659.359 237.331 660.096 240.793 661.075 244.199C663.202 251.65 666.492 258.546 669.115 263.726C672.178 269.757 675 275.164 678.659 280.202C679.496 281.351 680.389 282.472 681.24 283.551L682.119 284.658C682.559 285.226 682.998 285.793 683.438 286.361C684.317 287.496 685.196 288.631 686.118 289.738C686.586 290.292 687.026 290.874 687.451 291.441C688.302 292.562 689.181 293.712 690.231 294.748C690.656 295.173 691.039 295.67 691.436 296.195C691.663 296.479 691.876 296.777 692.117 297.061L692.4 297.401C692.726 297.813 693.081 298.253 693.521 298.636C694.768 299.715 695.875 301.091 696.796 302.737C697.69 304.341 698.385 306.086 699.051 307.803L699.406 308.712C699.789 309.662 699.689 309.904 698.739 310.471C696.967 311.522 694.953 312.203 692.783 312.487C689.834 312.87 687.182 313.068 684.672 313.083C676.489 313.153 668.59 312.699 659.132 312.118C658.522 312.089 657.926 312.118 657.345 312.174L656.962 312.203C656.423 312.245 655.884 312.302 655.331 312.359C654.211 312.487 653.176 312.6 652.155 312.515" fill="white"/>
<path d="M79.4133 84.7914C79.5835 86.6646 79.7536 88.5378 79.9805 90.3969C80.3067 93.1215 80.7179 95.8888 81.1008 98.5567C81.2994 99.9048 81.4979 101.239 81.6822 102.587L81.8241 103.623C81.9942 104.787 82.1644 105.979 82.2637 107.156L82.3488 108.306C82.5189 110.449 82.6891 112.677 83.1996 114.862C83.5825 116.537 83.8519 118.268 84.093 119.957L84.2915 121.291C84.5043 122.653 84.7028 124.015 84.9013 125.378C85.1708 127.265 85.4544 129.153 85.7664 131.04C86.7732 137.156 87.8226 143.273 88.872 149.389C90.0632 156.328 91.2828 163.254 92.5023 170.193L92.5874 170.704C92.7718 171.74 92.9845 172.804 93.2539 173.968L94.0764 177.572C95.1825 182.44 96.2886 187.293 97.4231 192.147C98.1038 195.07 98.9121 198.462 99.8623 201.768C100.642 204.479 101.451 207.175 102.259 209.885C103.053 212.525 103.847 215.179 104.613 217.832C105.691 221.607 107.236 224.843 109.335 227.709L109.59 227.951L109.831 228.05C111.59 228.745 112.412 229.057 113.277 229.057C113.944 229.057 114.625 228.873 115.759 228.547L116.667 228.291L116.78 227.809C116.823 227.624 116.879 227.44 116.936 227.241C117.064 226.773 117.206 226.233 117.276 225.694C117.39 224.814 117.461 223.934 117.546 223.055C117.674 221.692 117.801 220.287 118.028 218.939C118.397 216.782 118.666 214.568 118.936 212.44C119.389 208.892 119.857 205.231 120.722 201.697C121.02 200.505 121.19 199.285 121.361 198.107L121.474 197.312C121.588 196.574 121.673 195.822 121.772 195.084C121.899 194.105 122.013 193.14 122.169 192.161L122.637 189.337C123.19 185.931 123.757 182.412 124.452 178.977C124.764 177.459 125.033 175.94 125.317 174.422C125.941 170.988 126.593 167.44 127.572 164.02C128.167 161.905 128.692 159.734 129.189 157.648L129.515 156.272C129.713 155.434 129.898 154.597 130.068 153.76C130.351 152.397 130.663 150.978 131.046 149.63C131.94 146.565 132.904 143.457 133.854 140.463C134.294 139.058 134.733 137.653 135.173 136.248C135.329 135.737 135.471 135.226 135.627 134.715C135.839 134.006 136.038 133.282 136.279 132.587C137.002 130.373 137.725 128.173 138.463 125.96C139.115 123.987 139.768 122.014 140.42 120.028C140.647 119.347 140.845 118.665 141.044 117.984C141.384 116.849 141.739 115.671 142.164 114.55C143.837 110.222 145.568 105.752 147.496 101.31C148.432 99.1527 149.269 96.9389 150.091 94.7961C151.353 91.4754 152.672 88.0412 154.317 84.7914C155.494 82.4783 156.572 80.0658 157.593 77.7527C158.359 76.0355 159.153 74.2475 159.975 72.5304C161.635 69.0819 163.393 65.6051 165.109 62.2277L166.584 59.3327C168.115 56.2958 169.718 53.1596 171.349 50.0943C172.355 48.2069 173.391 46.3195 174.426 44.4463C175.447 42.6015 176.468 40.7566 177.446 38.8976C177.914 38.032 178.326 37.1379 178.737 36.2581C179.176 35.3215 179.63 34.3565 180.127 33.4483C181.516 30.9364 182.906 28.1976 183.771 25.2033C184.168 23.8409 184.211 22.7198 183.913 21.5704C183.417 19.6262 182.169 18.8741 180.07 19.2856C179.389 19.4275 178.708 19.612 177.999 19.7965C177.659 19.8958 177.305 19.9952 176.922 20.0945L176.553 20.1938L176.369 20.506C176.227 20.7331 176.071 20.9743 175.901 21.2298C175.489 21.84 175.021 22.5495 174.709 23.3159C173.773 25.6006 172.455 27.6583 170.951 29.9147L170.54 30.5249C169.803 31.6318 169.037 32.7671 168.371 33.9733C167.647 35.2789 166.981 36.5987 166.3 37.9184C165.804 38.8976 165.293 39.8768 164.783 40.856C164.513 41.3669 164.201 41.8635 163.889 42.3602C163.563 42.8853 163.237 43.4246 162.939 43.9638C162.471 44.8578 162.017 45.7519 161.564 46.6601C161.152 47.4974 160.741 48.3205 160.302 49.1435C159.777 50.1369 159.224 51.1303 158.685 52.1237C157.976 53.4008 157.281 54.678 156.615 55.9836C155.437 58.2542 154.317 60.5957 153.225 62.8521L152.757 63.8171C151.68 66.0592 150.559 68.3724 149.524 70.6713L148.928 71.9769C146.844 76.589 144.702 81.3714 142.675 86.097C140.987 90.0421 139.399 94.0865 137.867 98.0033L137.513 98.8973C136.18 102.275 134.903 105.723 133.712 108.945C133.514 109.484 133.372 110.023 133.216 110.577C133.102 111.002 132.989 111.428 132.847 111.854C132.067 114.138 131.287 116.437 130.493 118.722C129.43 121.816 128.366 124.909 127.331 128.017C124.721 135.766 122.708 143.698 120.907 151.106L120.368 153.334C119.985 154.895 119.602 156.47 119.248 158.031C119.021 159.025 118.794 160.004 118.581 160.983C117.858 164.133 117.106 167.397 116.511 170.647C115.461 176.409 114.54 182.284 113.646 187.96L113.561 188.499C113.235 190.586 112.951 192.672 112.668 194.772C112.427 196.574 112.171 198.362 111.902 200.164C111.406 203.4 110.881 206.579 110.299 209.999C110.243 209.8 110.186 209.616 110.129 209.431C109.534 207.43 108.981 205.543 108.513 203.641C106.868 197.042 104.712 188.343 102.67 179.63C101.55 174.89 100.614 170.207 99.8481 166.248C99.3234 163.552 98.8696 160.799 98.4442 158.145L98.0471 155.747C97.8769 154.696 97.7067 153.632 97.5508 152.582C97.3239 151.106 97.097 149.63 96.8417 148.169C96.4163 145.799 95.9908 143.429 95.5512 141.059C94.8847 137.469 94.204 133.75 93.5943 130.089C92.63 124.356 91.7649 118.495 90.9282 112.833L90.8006 111.953C90.4744 109.711 90.1766 107.469 89.893 105.226C89.7512 104.12 89.6094 103.013 89.4676 101.92L88.9713 98.2161C88.6451 95.832 88.3189 93.4479 88.0211 91.0638C87.5106 86.991 87.0427 82.9182 86.5747 78.8312C86.3052 76.4329 86.05 74.0204 85.7947 71.6221L85.4827 68.642C85.27 66.5985 85.0431 64.555 84.8446 62.5115C84.4475 58.4245 84.0363 54.3375 83.6676 50.2646L83.4265 47.5825C82.9018 41.9345 82.3771 36.102 81.895 30.3546C81.7106 28.0557 81.6539 25.7 81.6113 23.4152V23.0179C81.583 21.9109 81.6255 20.7757 81.6681 19.6688L81.7248 17.9091C81.7532 16.8306 81.7957 15.7237 81.895 14.6593C81.9375 14.262 82.0084 13.4389 82.3204 13.0132C82.4055 12.928 82.7884 12.7861 83.0011 12.7152C83.2138 12.6442 83.4265 12.5733 83.6109 12.4881L83.9512 12.332L84.0788 11.9914C84.561 10.6291 84.1781 9.52218 83.7527 8.62815L83.5541 8.21661C82.9585 6.98199 82.3488 5.70479 81.9233 4.41341C81.271 2.45505 80.0514 1.1069 78.0661 0.184483L77.6548 0L75.1732 1.1069L75.5135 1.9016L75.1165 1.13528L74.5918 1.36234V1.9016C74.5918 2.34152 74.5918 2.73887 74.6201 3.12203C74.6485 3.84577 74.6627 4.47017 74.5776 5.05201C74.0812 8.21661 74.1663 11.3812 74.2372 14.1768C74.2372 14.5458 74.2372 14.929 74.2089 15.3121V15.752C74.1663 16.5609 74.1096 17.3698 74.0671 18.1929C73.9678 19.9952 73.8685 21.8684 73.9253 23.7132C73.9678 25.26 74.1238 26.821 74.2656 28.3253C74.4216 30.0282 74.5918 31.7737 74.6059 33.4908C74.6485 37.0812 75.0456 40.6857 75.4568 44.1625C75.6553 45.8796 75.8539 47.5967 75.9957 49.328C76.2084 51.6979 76.4353 54.0536 76.6764 56.4093L77.0451 60.1983C77.2294 62.1283 77.357 64.1151 77.4847 66.0167C77.6974 69.3941 77.9243 72.8851 78.4773 76.3194C78.917 79.115 79.1864 81.9958 79.4275 84.7772" fill="white"/>
<path d="M422.834 96.2721C422.948 96.2721 423.047 96.2721 423.146 96.2863C423.26 96.2863 423.402 96.3431 423.501 96.4566C423.572 96.5559 423.6 96.6978 423.572 96.8539C423.075 99.5076 421.827 102.005 419.856 104.262C419.544 104.631 419.317 105 419.105 105.369C418.793 105.894 418.537 106.348 418.041 106.66C417.318 107.114 416.85 107.767 416.396 108.405C416.155 108.746 415.914 109.058 415.659 109.328C415.318 109.683 414.935 110.023 414.553 110.35C414.085 110.761 413.588 111.187 413.163 111.669C410.951 114.139 408.469 116.367 405.902 118.623C405.264 119.191 404.739 119.829 404.229 120.439C403.832 120.922 403.463 121.362 403.052 121.773C402.329 122.497 401.534 123.192 400.769 123.859C400.286 124.285 399.79 124.711 399.322 125.151C399.223 125.25 399.109 125.335 398.996 125.435C398.5 125.846 397.947 126.315 397.776 126.996C397.663 127.464 397.408 127.776 396.911 128.117C396.911 128.088 396.926 128.06 396.94 128.032C398.131 124.115 399.507 119.971 401.577 116.154C403.08 113.401 404.626 110.534 406.469 107.866C408.894 104.347 412.085 101.31 416.226 98.5852C418.296 97.2229 420.197 96.4991 422.239 96.2863C422.437 96.2721 422.65 96.2437 422.863 96.2437M469.617 123.263L469.901 122.965C471.518 121.22 473.191 119.432 474.722 117.573C475.46 116.679 476.297 115.827 477.119 114.99C477.856 114.238 478.622 113.457 479.331 112.634C480.366 111.414 481.543 110.264 482.678 109.143C483.571 108.264 484.493 107.355 485.387 106.362C485.472 106.277 485.599 106.135 485.628 106.106C487.23 105.539 488.407 104.517 489.527 103.538C489.868 103.24 490.208 102.942 490.548 102.672C492.477 101.125 494.448 100.019 496.575 99.2948C496.675 99.6496 496.731 100.033 496.774 100.416C496.831 100.898 496.901 101.395 497.057 101.892C497.979 104.787 498.178 107.781 498.263 110.335C498.32 112.123 498.362 113.912 498.405 115.7C498.461 117.743 498.504 119.772 498.575 121.816C498.66 124.285 498.773 126.967 498.929 130.033C499.255 136.078 499.78 141.13 501.326 146.182C502.134 148.836 503.24 150.851 504.8 152.54C506.105 153.944 507.849 154.64 510.09 154.64C510.359 154.64 510.629 154.64 510.912 154.611C512.883 154.47 513.635 152.951 514.188 151.844L514.372 151.489C516.528 147.289 518.669 143.046 520.74 138.874C521.009 138.334 521.179 137.781 521.364 137.128C521.449 136.816 521.548 136.489 521.676 136.135L522.994 132.175L520.087 135.326C519.761 135.681 519.435 136.05 519.336 136.092C519.18 136.106 518.698 135.936 518.215 135.766L517.606 135.567L515.946 137.398C514.996 138.448 514.046 139.498 513.082 140.548C512.642 141.031 512.245 141.527 511.834 142.038C511.153 142.89 510.515 143.699 509.679 144.408C509.508 144.153 509.367 143.926 509.31 143.727L508.955 142.421C508.402 140.349 507.821 138.221 507.48 136.106C507.126 133.878 507.069 131.551 506.998 129.295V128.855C506.956 127.833 506.942 126.797 506.927 125.775C506.899 122.738 506.856 119.588 506.332 116.48C506.303 116.352 506.332 116.168 506.332 115.983C506.332 115.842 506.36 115.685 506.36 115.544C506.417 112.081 506.147 108.732 505.552 105.596C505.056 102.899 504.403 100.203 503.793 97.5777L503.354 95.7186C502.801 93.3629 501.411 91.3904 499.199 89.8436C497.27 88.4954 495.313 88.4245 493.229 89.6449C492.917 89.8294 492.619 90.028 492.307 90.2267C491.881 90.5105 491.484 90.766 491.073 90.9646C486.762 93.0365 483.302 96.116 479.969 99.0961C479.416 99.5786 478.877 100.075 478.324 100.558C476.325 102.303 474.581 104.318 472.893 106.263C472.368 106.873 471.844 107.469 471.305 108.065C469.348 110.25 467.433 112.464 465.519 114.664L462.938 117.63C462.442 118.197 461.945 118.751 461.321 119.276C461.506 118.552 461.69 117.814 461.889 117.09C462.229 115.842 462.569 114.55 462.839 113.259C463.534 109.81 464.257 106.121 464.796 102.445C465.179 99.8057 465.576 96.3147 465.292 92.7243C465.264 92.4405 465.235 92.1567 465.221 91.8729C465.136 90.9788 465.051 90.1416 465.122 89.3185C465.278 87.6014 464.796 86.0687 464.342 84.5787L464.228 84.1955C463.86 83.0035 463.023 82.3081 461.676 82.0527C460.683 81.8682 459.52 81.7972 458.301 82.5919L457.989 82.8048L457.918 83.1454C457.493 85.4443 456.245 87.6298 455.209 89.2759C455.025 89.5597 454.883 89.8578 454.741 90.17C454.685 90.2977 454.614 90.4396 454.543 90.5673C454.245 91.1349 453.961 91.7168 453.664 92.2986C452.969 93.6609 452.26 95.08 451.466 96.3998C450.842 97.45 450.232 98.713 450.544 100.089C450.742 100.998 450.218 101.537 449.977 101.736C449.027 102.502 448.559 103.453 448.147 104.276C448.034 104.489 447.935 104.716 447.807 104.929L447.722 105.085C447.566 105.369 447.41 105.667 447.24 105.808C446.46 106.447 446.134 107.27 445.836 107.994C445.566 108.675 445.325 109.257 444.786 109.597C444.318 109.895 444.248 110.406 444.219 110.704C444.219 110.761 444.219 110.832 444.191 110.875C443.439 113.713 442.035 116.381 439.88 119.006C439.114 119.929 438.49 120.879 437.951 121.887C436.888 123.888 435.484 125.733 433.768 127.379C430.903 130.132 428.28 132.559 425.174 134.517C424.649 134.843 424.125 135.184 423.586 135.524C421.913 136.589 420.182 137.696 418.396 138.647C418.14 138.788 417.871 138.888 417.601 139.001C417.148 139.2 416.666 139.399 416.226 139.697C412.936 141.925 409.178 143.117 405.292 144.252C403.974 144.635 402.555 144.692 400.797 144.422C399.677 144.252 398.67 143.855 398.103 143.358C396.897 142.294 396.5 140.747 396.089 139.101L395.919 138.419C396.075 138.178 396.217 137.923 396.373 137.682C396.727 137.085 397.067 136.518 397.507 136.106C398.386 135.269 399.351 134.474 400.287 133.708C401.024 133.098 401.761 132.488 402.456 131.863C406.101 128.613 409.15 125.875 412.17 123.051C412.851 122.426 413.475 121.759 414.085 121.106C415.29 119.843 416.41 118.637 417.843 117.715C418.296 117.431 418.623 117.048 418.92 116.707C419.02 116.594 419.119 116.494 419.218 116.381C419.601 115.983 419.984 115.572 420.353 115.16C421.104 114.337 421.884 113.5 422.707 112.748C424.734 110.875 426.394 108.703 427.769 106.078C429.372 103.027 430.279 99.6496 430.549 95.747C430.605 94.8246 430.506 93.8312 430.251 92.7953C429.74 90.7376 427.599 89.1624 425.288 89.134C421.303 89.0772 417.928 89.7868 414.907 91.2769C412.624 92.4121 410.894 93.5758 409.419 95.0233C409.05 95.3781 408.696 95.7186 408.313 95.9741C405.278 97.9892 403.137 100.7 401.449 103.07C400.528 104.361 399.549 105.652 398.585 106.887L397.947 107.724C396.174 110.037 394.642 112.563 393.395 115.231C392.856 116.381 392.43 117.573 392.019 118.722C391.551 120.014 391.069 121.348 390.445 122.596C390.062 123.349 389.934 124.143 389.807 124.91L389.708 125.463C389.537 126.343 389.396 127.237 389.24 128.117C389.126 128.755 389.027 129.408 388.913 130.047C388.885 130.203 388.842 130.345 388.786 130.501C388.701 130.785 388.587 131.111 388.573 131.466C388.403 134.758 388.332 138.263 389.353 141.783C390.317 145.075 392.005 147.601 394.529 149.531C394.699 149.673 394.884 149.801 395.068 149.928C395.493 150.241 395.905 150.539 396.231 150.865C397.961 152.625 400.272 152.979 401.861 153.093C403.747 153.235 405.59 152.979 407.646 152.667C409.277 152.412 411.376 151.958 413.22 150.61C413.758 150.212 414.425 149.928 415.134 149.63C415.588 149.446 416.027 149.247 416.453 149.034C417.034 148.736 417.587 148.41 418.14 148.069C418.424 147.899 418.693 147.743 418.977 147.573C419.147 147.473 419.317 147.402 419.502 147.317C419.984 147.09 420.537 146.835 420.934 146.366C421.686 145.487 422.749 144.947 423.955 144.394C425.642 143.613 427.046 142.535 428.393 141.499C428.776 141.201 429.173 140.903 429.556 140.619C432.889 138.164 435.668 135.127 438.206 132.232C440.958 129.11 443.085 125.605 444.957 122.511C445.226 122.071 445.51 121.646 445.793 121.22C446.772 119.744 447.793 118.226 448.048 116.367C448.048 116.367 448.076 116.324 448.119 116.267C449.055 115.203 449.58 113.997 450.076 112.833C450.388 112.123 450.672 111.442 451.04 110.818C452.019 109.186 452.742 107.412 453.451 105.709C453.891 104.645 454.359 103.538 454.855 102.488L455.068 102.062C455.791 100.558 456.542 99.0252 457.493 97.6202C457.493 97.6628 457.493 97.6912 457.493 97.7338C457.407 98.8265 457.337 99.8482 457.053 100.827C456.273 103.396 455.607 106.021 455.053 108.264C454.16 111.882 453.451 114.862 452.855 117.63C452.033 121.404 451.395 124.569 450.856 127.592C450.572 129.195 450.643 130.657 451.111 132.048C451.664 133.708 452.756 134.843 454.486 135.524C456.046 136.135 457.379 135.936 458.485 134.957C459.251 134.261 459.861 133.68 460.371 133.112C460.939 132.488 461.506 131.849 462.059 131.21C462.739 130.444 463.406 129.678 464.115 128.926C464.98 128.003 465.859 127.095 466.739 126.173C467.689 125.193 468.625 124.214 469.546 123.235" fill="white"/>
<path d="M598.763 75.9362C598.139 75.9362 597.501 75.9078 596.877 75.8936C596.168 75.8652 595.445 75.8652 594.736 75.8652C593.176 75.8652 591.701 75.8652 590.255 75.6381C588.751 75.4253 587.234 75.3969 585.759 75.3685C583.689 75.3259 581.746 75.2976 579.846 74.7725C579.605 74.7015 579.392 74.7299 579.307 74.7441L576.428 74.6873C574.244 74.6448 572.075 74.6022 569.891 74.5738C569.295 74.5738 568.912 74.5171 568.572 74.2758C568.572 74.2049 568.586 74.1339 568.6 74.0487C568.657 73.5379 568.714 73.027 568.841 72.5303C569.068 71.6647 569.338 70.8132 569.593 69.9617C569.862 69.0677 570.146 68.1595 570.387 67.2512C572.245 60.2551 574.088 53.2589 575.918 46.2485C577.492 40.2315 579.038 34.2003 580.583 28.1691C581.221 25.6857 581.845 23.2023 582.427 20.7047C582.639 19.8248 582.725 18.9166 582.795 18.1503C582.881 17.086 582.171 16.121 580.938 15.6385C579.69 15.156 578.385 15.5107 577.719 16.5183L577.563 16.7596C577.024 17.5543 576.428 18.4625 576.187 19.4559C575.677 21.6271 574.968 23.8125 574.287 25.9128C573.918 27.0764 573.535 28.2259 573.195 29.3896C572.684 31.1209 572.174 32.838 571.678 34.5693C571.025 36.7973 570.387 39.0253 569.706 41.2391C568.728 44.4463 567.693 47.625 566.431 51.4141C565.963 52.819 565.551 54.2665 565.14 55.6572C564.545 57.7007 563.935 59.8151 563.155 61.8303C561.907 65.1226 560.489 68.8406 559.666 72.6864C559.383 74.0488 559.113 74.2474 557.511 74.2049C556.929 74.2049 556.348 74.1623 555.767 74.1339C554.59 74.0771 553.37 74.0062 552.15 74.1339C549.697 74.361 547.187 74.4035 544.748 74.4603C543.713 74.4745 542.678 74.5029 541.642 74.5312C539.841 74.588 537.757 74.6732 535.686 74.9002C534.453 75.0421 533.148 75.3401 531.772 75.7801C530.212 76.2909 529.617 77.3553 530 78.9447C530.141 79.5549 530.297 80.1651 530.439 80.7753C530.695 81.8964 531.092 83.5851 532.921 84.5075C533.105 84.6069 533.318 84.8339 533.531 85.0468L533.729 85.2597C535.658 87.2322 537.884 88.9209 540.111 90.6097C541.103 91.3618 542.21 91.7308 543.401 91.7308C544.351 91.7308 545.216 91.2767 545.655 90.5671C546.081 89.8859 546.067 89.0771 545.641 88.3675C545.145 87.5728 544.493 86.8065 543.699 86.0544C543.174 85.5719 542.621 85.1319 542.068 84.7062C541.642 84.3798 541.231 84.0534 540.834 83.6986C540.791 83.6561 540.749 83.5993 540.706 83.5284C540.933 83.4574 541.132 83.4006 541.288 83.3864C546.762 82.9891 551.824 83.0601 556.731 83.5851C556.731 83.6277 556.717 83.6703 556.702 83.6986C555.242 88.1404 554.136 92.7241 553.143 96.9956C552.902 98.0316 552.703 99.0675 552.491 100.118C552.349 100.87 552.193 101.622 552.037 102.374C551.767 103.623 551.484 104.872 551.2 106.106C550.661 108.476 550.108 110.931 549.655 113.358C549.144 116.083 548.804 118.864 548.477 121.56L548.449 121.802C548.251 123.462 548.095 125.122 547.924 126.783C547.811 127.918 547.712 129.067 547.584 130.203C547.428 131.65 547.258 133.083 547.088 134.531C546.974 135.538 546.847 136.532 546.733 137.539C546.379 140.676 546.095 144.805 547.088 148.963C547.527 150.794 548.477 152.312 549.995 153.575C550.605 154.086 551.271 154.469 551.923 154.838C552.179 154.98 552.448 155.136 552.689 155.292L553.044 155.505L553.441 155.406C554.604 155.122 556.234 154.54 557.043 152.752C557.397 151.972 557.78 151.191 558.163 150.411C558.745 149.219 559.354 147.984 559.865 146.721L560.106 146.153C560.56 145.061 561.084 143.84 561.056 142.478C561.765 141.499 561.992 140.406 562.191 139.441C562.276 139.015 562.361 138.59 562.488 138.178L562.758 137.327L561.836 137.114C560.673 136.844 558.574 136.787 557.638 139.441C557.553 139.696 557.482 139.966 557.426 140.236C557.355 140.562 557.298 140.874 557.17 141.045C556.348 142.208 555.44 143.372 554.547 144.479L553.937 145.245C553.937 145.245 553.937 145.217 553.937 145.188C554.15 143.528 554.278 141.839 554.405 140.222C554.604 137.582 554.816 134.857 555.398 132.232C555.71 130.827 555.88 129.394 556.05 128.003C556.149 127.137 556.249 126.272 556.39 125.406C557.426 118.963 558.617 112.067 560.404 105.326C560.843 103.665 561.212 101.963 561.567 100.316C561.822 99.1243 562.077 97.9323 562.361 96.7544C563.297 92.8519 564.19 89.2899 565.098 85.8415C565.48 84.4082 565.693 84.2521 567.281 84.2805C571.082 84.3656 574.868 84.465 578.669 84.5643L581.704 84.6495C582.257 84.6636 582.824 84.6495 583.391 84.6495C584.696 84.6495 585.929 84.6494 587.106 84.8339C589.12 85.1603 591.077 85.1603 592.566 85.1178C593.02 85.1178 593.488 85.1178 593.928 85.1603C594.594 85.2171 595.275 85.2739 595.941 85.3306C597.033 85.43 598.125 85.5151 599.217 85.5861C601.018 85.6996 602.833 85.6428 604.577 85.5861H604.861C605.457 85.5577 606.095 85.6428 606.761 85.728C608.009 85.8841 609.399 86.0686 610.845 85.5577C612.122 86.1253 613.426 86.1679 614.674 86.1963C615.242 86.2105 615.78 86.2247 616.305 86.2956C617.822 86.4801 619.354 86.4517 620.843 86.4375C621.524 86.4375 622.19 86.4091 622.871 86.4233H623.098C623.225 86.4233 623.438 86.4233 623.396 86.3808C624.402 87.1187 625.537 87.1329 626.444 87.1329C626.728 87.1329 627.012 87.1329 627.295 87.1613C627.82 87.218 628.345 87.2038 628.841 87.2038C629.508 87.2038 630.132 87.1896 630.685 87.3174C632.868 87.814 635.067 87.6154 636.825 87.4593C638.385 87.3174 640.044 87.2748 641.618 87.7857C642.625 88.1121 643.972 88.4243 645.419 87.9276C646.355 87.6012 647.177 87.6721 648.014 88.1262C649.106 88.7365 650.339 88.7365 651.488 88.1262C651.743 87.9843 651.914 87.956 652.495 88.254C653.105 88.5662 653.913 88.254 653.941 88.254C654.367 88.0837 654.523 87.7999 654.58 87.6012C654.707 87.1471 654.849 86.2956 654.282 85.7989L653.885 85.4441C653.062 84.7062 652.226 83.9399 651.19 83.4006C648.624 82.0525 645.731 81.3429 643.221 80.7753C641.051 80.2928 638.839 79.9806 636.683 79.6826C636.045 79.5974 635.407 79.4981 634.769 79.3988C633.932 79.271 633.081 79.1433 632.23 79.0156C629.621 78.6183 626.912 78.1925 624.232 77.9229C617.454 77.2417 610.93 76.6883 603.088 76.0497C601.642 75.9362 600.181 75.8936 598.763 75.8652" fill="white"/>
<path d="M305.231 170.817C303.643 171.144 303.317 171.03 302.466 169.824C301.998 169.143 301.615 168.419 301.176 167.511C299.644 164.318 298.595 160.969 297.985 157.279L297.63 155.193C296.865 150.68 296.071 146.026 295.787 141.399L295.73 140.519C295.546 137.426 295.347 134.219 295.291 131.068C295.191 125.931 294.667 120.851 294.156 116.565C293.546 111.343 292.568 106.745 291.178 102.502C290.256 99.6776 288.186 98.1308 284.853 97.7334C283.591 97.5915 281.804 97.6057 280.698 99.4931L280.33 100.146C279.762 101.139 279.224 102.076 278.543 102.885C276.515 105.269 275.012 107.837 273.395 110.69C271.693 113.698 269.978 116.906 268.134 120.467C266.985 122.71 265.865 124.966 264.745 127.208C263.681 129.337 262.632 131.466 261.54 133.594C259.299 137.979 256.619 143.159 253.84 148.324C252.577 150.68 251.174 153.022 249.826 155.292L249.302 156.172C249.302 155.69 249.287 155.207 249.273 154.71C249.231 152.639 249.174 150.496 249.401 148.438C249.826 144.493 250.479 140.491 251.117 136.631L251.528 134.133C251.968 131.409 252.436 128.684 252.904 125.959C253.471 122.639 254.038 119.332 254.563 116.011C255.215 111.868 255.768 107.837 256.179 104.02C256.874 97.7334 256.846 91.3191 256.818 85.1318V84.2378C256.803 80.4062 256.364 76.5604 255.91 72.9559C255.768 71.8348 255.584 70.7137 255.4 69.6068C255.314 69.0959 255.229 68.5851 255.144 68.0742C254.917 66.6409 254.123 65.5482 252.719 64.7109L252.379 64.498L251.982 64.5974C248.848 65.4063 248.394 65.9739 248.763 68.656L248.947 69.99C249.373 73.0836 249.812 76.2908 249.954 79.4412C250.067 82.0382 250.025 84.6777 249.982 87.2463C249.954 88.8924 249.926 90.5528 249.94 92.1989C249.94 93.7741 249.642 95.2784 249.33 96.882C249.217 97.4354 249.117 97.9747 249.018 98.5281C248.976 98.741 248.933 98.9539 248.89 99.1667C248.749 99.8763 248.607 100.6 248.621 101.366C248.664 103.467 248.238 105.51 247.756 107.596C246.933 111.172 246.21 114.72 245.558 118.041C244.906 121.333 244.367 124.696 243.842 127.96C243.629 129.252 243.431 130.543 243.218 131.834C243.119 132.402 243.062 132.97 242.991 133.537C242.864 134.701 242.736 135.794 242.367 136.801C241.885 138.121 241.616 139.498 241.46 141.272C241.389 142.038 241.36 142.804 241.332 143.57C241.289 144.606 241.233 145.671 241.105 146.692C240.609 150.595 240.807 154.483 241.077 157.761C241.219 159.521 241.757 161.267 242.268 162.743C243.388 165.964 246.338 167.34 249.358 168.348C250.45 168.717 251.727 168.376 252.535 167.497L252.79 167.227C253.372 166.603 253.967 165.964 254.421 165.212C255.4 163.637 256.35 162.047 257.3 160.458C257.966 159.337 258.633 158.23 259.313 157.123C261.015 154.327 262.561 151.404 264.036 148.58C264.532 147.629 265.043 146.664 265.553 145.713C265.95 144.961 266.319 144.195 266.688 143.429C267.326 142.095 267.935 140.817 268.715 139.64C270.715 136.603 272.317 133.367 273.849 130.231L274.175 129.564C275.834 126.186 277.55 122.695 279.408 119.304C280.528 117.26 281.847 115.259 283.123 113.315C283.605 112.577 284.088 111.839 284.57 111.116C284.584 111.087 284.598 111.059 284.626 111.045C284.641 111.116 284.655 111.187 284.683 111.272C284.853 112.024 285.038 112.79 285.094 113.542C285.69 120.028 286.314 126.995 286.867 133.963C287.023 135.922 287.122 137.88 287.236 139.838C287.349 141.938 287.463 144.11 287.647 146.253C287.846 148.552 288.271 150.879 288.668 152.837C288.952 154.242 289.292 155.647 289.632 157.052C289.959 158.4 290.285 159.762 290.554 161.125C291.306 164.772 292.851 168.32 295.319 171.981C296.34 173.499 297.716 174.734 299.403 175.671C299.97 175.983 300.58 176.196 301.176 176.409C301.516 176.522 301.856 176.65 302.183 176.777C303.36 177.274 304.522 177.53 305.657 177.53C306.536 177.53 307.401 177.373 308.209 177.061C310.067 176.352 311.556 174.847 312.393 172.804L312.577 172.336L310.322 169.81L305.288 170.874L305.231 170.817Z" fill="white"/>
<path d="M191.84 111.286C191.783 112.365 191.727 113.472 191.613 114.55C191.471 115.927 191.301 117.303 191.117 118.694C190.904 120.397 190.691 122.1 190.521 123.803C189.996 129.323 189.543 134.9 189.174 139.626L189.032 141.343C188.749 144.805 188.465 148.382 188.323 151.915C188.195 155.023 188.195 158.188 188.195 161.239V163.977C188.181 168.49 188.238 172.563 189.202 176.65C189.316 177.133 189.401 177.615 189.486 178.098C189.599 178.779 189.727 179.474 189.926 180.155C190.294 181.461 191.259 182.369 192.733 182.781C193.315 182.951 193.882 183.164 194.449 183.377C194.875 183.533 195.3 183.689 195.726 183.831C196.208 183.987 196.647 184.072 197.059 184.072C197.512 184.072 197.909 183.973 198.264 183.774C198.916 183.405 199.313 182.738 199.455 181.801C199.54 181.191 199.611 180.567 199.668 179.942C199.796 178.736 199.909 177.601 200.221 176.508C201.313 172.804 202.093 169.115 202.944 164.701C202.972 164.573 203.043 164.403 203.142 164.219C203.199 164.105 203.256 163.992 203.298 163.864L204.121 161.806L202.49 162.573L202.32 161.934L202.135 162.672C201.596 162.629 200.845 162.686 200.32 163.424C199.469 164.616 198.406 165.964 196.931 167.014C196.86 166.617 196.803 166.248 196.818 165.893V165.141C196.959 160.373 197.101 155.463 197.371 150.624C197.597 146.551 197.98 142.62 198.448 137.894C198.746 134.843 199.101 131.792 199.441 128.755C199.64 126.996 199.838 125.25 200.022 123.49C200.122 122.596 200.221 121.702 200.32 120.808C200.604 118.297 200.902 115.685 201.086 113.117C201.441 108.235 201.426 102.899 201.029 96.3288C200.873 93.6467 200.434 90.9504 200.065 88.9069C199.611 86.3951 198.533 86.0687 196.264 86.2816C195.967 86.3099 195.669 86.3383 195.385 86.3809C194.137 86.5228 192.464 86.9485 192.308 89.1623C192.237 90.0706 192.265 90.9788 192.294 91.8586V92.5114C192.436 98.3297 192.322 103.992 191.939 109.342C191.897 109.981 191.868 110.605 191.826 111.244" fill="white"/>
<path d="M354.61 170.179C355.39 170.179 356.141 170.023 356.808 169.739C357.474 169.441 358.169 169.199 358.864 168.944C360.466 168.362 362.111 167.766 363.558 166.645C364.394 165.992 365.345 165.467 366.366 164.928C366.706 164.743 367.06 164.545 367.401 164.36C369.471 163.182 369.698 162.941 371.414 159.989L372.364 158.372L370.421 158.741C369.812 158.854 369.188 158.897 368.592 158.939C367.16 159.024 365.671 159.124 364.295 160.16C364.111 160.302 363.629 160.373 363.246 160.429L363.047 160.458C362.267 160.585 361.487 160.685 360.693 160.798C359.36 160.983 357.985 161.167 356.637 161.451C354.709 161.848 352.88 161.55 350.738 160.983C349.093 160.543 348.129 159.649 347.604 158.074C346.739 155.477 346.257 152.752 346.2 149.971C346.002 141.868 345.874 133.935 346.47 125.988C347.122 117.431 348.71 109.881 351.362 102.927C352.326 100.387 353.603 97.4496 355.787 94.952C356.864 93.7173 358.084 92.4685 359.63 91.7164C361.913 90.6237 363.756 90.2122 365.6 90.3824C368.195 90.6237 370.875 90.8791 372.931 92.6956C373.442 93.1497 374.009 93.5187 374.548 93.8734C374.817 94.0437 375.087 94.2282 375.342 94.4127C376.519 95.25 377.81 95.6189 379.199 95.5196L379.752 95.477L379.965 95.0087C381.369 91.986 380.915 90.3683 378.207 88.8356L377.554 88.4667C376.179 87.7003 374.888 86.9624 373.726 86.0116C372.322 84.8621 370.762 83.9823 369.202 83.4572C366.082 82.4071 362.664 82.5064 359.318 83.741C356.127 84.9189 353.277 86.934 350.866 89.7013C348.384 92.5537 346.456 95.7325 345.108 99.1667L344.768 100.018C343.421 103.467 342.017 107.029 341.251 110.747C341.053 111.712 340.797 112.677 340.556 113.642C340.173 115.132 339.776 116.678 339.564 118.239C339.408 119.332 339.195 120.439 338.982 121.532C338.528 123.831 338.06 126.201 338.188 128.656C338.245 129.848 338.287 131.238 338.103 132.587C337.422 137.78 337.522 142.96 337.692 148.253C337.805 151.631 338.117 155.604 339.634 159.507C340.372 161.409 341.435 163.111 342.896 164.687C345.576 167.596 349.178 168.859 352.638 169.895C353.291 170.093 353.957 170.193 354.595 170.193" fill="white"/>
<path d="M208.474 16.5608C213.452 16.3621 218.543 19.1577 219.465 22.4926C219.947 24.2523 219.124 25.7424 217.337 26.8634C215.636 27.9136 213.735 27.3318 212.076 26.7073C207.198 24.8625 204.419 21.8824 208.474 16.5608Z" fill="white"/>
<path d="M324.872 631.217C322.901 626.562 320.15 622.362 316.647 618.771L315.839 617.962L339.833 551.932L368.62 631.217H324.872ZM235.617 601.061V520.669H254.392C279.493 520.669 292.752 534.292 292.752 562.504C292.752 592.518 285.151 601.061 260.221 601.061H235.617ZM115.022 631.217L143.866 551.932L172.639 631.217H115.036H115.022ZM418.608 691.202L392.146 618.275L353.815 512.665H351.376L313.782 616.075C305.288 608.781 293.475 604.226 278.614 602.494L274.87 602.111L278.557 601.458C303.473 596.974 320.221 581.236 320.221 562.263C320.221 536.236 295.773 518.1 260.746 518.1H185.459V520.697H209.056V653.823L157.82 512.679H155.367L90.5881 690.762L90.4888 690.791C89.6096 690.904 88.7445 690.975 87.8511 691.06C86.5607 691.16 85.256 691.231 83.9372 691.231H32.1483L132.025 518.114H9.92668V572.934H12.4225C12.6636 546.851 27.8372 520.711 61.3469 520.711H99.8482L0 693.7H136.719V641.207H134.195C134.024 663.856 121.247 685.356 93.5093 690.337L114.1 633.715H173.533L194.407 691.202H175.064V693.7H253.669V691.202H235.589V603.559H260.192C285.222 603.559 299.587 614.159 299.587 633.672V649.523C299.587 650.886 299.658 652.745 299.757 654.49L286.427 691.202H271.637V693.7H304.054V691.202H289.164L300.197 660.876L300.438 662.82L300.75 664.793C302.764 676.997 307.415 685.98 314.605 691.472L315.64 692.21C321.1 696.027 328.446 697.943 336.373 697.943C346.867 697.943 353.759 695.19 359.53 689.017L357.899 687.385C352.582 692.281 348.1 694.296 342.485 694.296C332.133 694.296 328.417 682.943 328.417 671.505V650.077C328.417 644.216 327.552 638.781 325.85 633.828L325.808 633.715H369.542L390.402 691.202H370.549V693.7H438.802V691.202H418.622H418.608Z" fill="white"/>
<path d="M854.9 691.202H827.545V520.64H854.9V691.202ZM626.601 684.476C618.135 691.898 608.066 694.552 595.076 694.552C582.087 694.552 572.061 691.898 563.58 684.476C550.08 672.825 542.933 649.083 542.933 605.631C542.933 562.178 550.08 538.55 563.58 526.856C572.061 519.448 582.129 516.809 595.076 516.809C608.024 516.809 618.135 519.448 626.601 526.856C639.86 538.55 647.262 562.178 647.262 605.631C647.262 649.083 639.86 672.825 626.601 684.476ZM966.504 642.371C966.504 669.391 950.607 691.202 910.915 691.202H881.645V603.999H892.21C912.347 603.999 923.706 615.053 923.706 631.728H926.202V573.218H923.706C923.706 590.446 912.347 601.501 892.21 601.501H881.645V520.655H911.808C942.78 520.655 955.216 540.054 955.216 563.327H957.712V518.058H801.31L754.541 653.937L703.958 518.058H651.715V520.669H673.866V586.473C666.222 545.106 634.258 514.212 595.076 514.212C555.894 514.212 524.356 544.765 516.457 585.763V520.64H539.132V518.043H467.334V520.64H490.009V600.735H418.608V520.64H441.284V518.043H369.485V520.64H392.132V618.261L418.608 691.188V603.204H490.009V691.188H467.334V693.672H539.132V691.188H516.457V625.498C524.342 666.496 556.164 697.049 595.076 697.049C633.989 697.049 666.222 666.141 673.866 624.774V691.217H648.269V693.657H702.058V691.217H676.362V520.839L741.211 697.972H742.005L801.083 526.501V691.174H777.741V693.657H969V642.343H966.504V642.371Z" fill="white"/>
</g>
</g>
<defs>
<clipPath id="clip0_91_658">
<rect width="969" height="698" fill="white"/>
</clipPath>
</defs>
</svg>
